<svg width="100" height="100" viewBox="0 0 100 100" fill="none" xmlns="http://www.w3.org/2000/svg">
<rect x="7.5" y="7.5" width="85" height="85" rx="10.5" stroke="#142D55" stroke-width="9"/>
<path fill-rule="evenodd" clip-rule="evenodd" d="M49.0829 27C46.3215 27 44.0829 29.2386 44.0829 32V44.1699H32C29.2386 44.1699 27 46.4084 27 49.1699V50.1699C27 52.9313 29.2386 55.1699 32 55.1699H44.0829V67C44.0829 69.7614 46.3215 72 49.0829 72H49.8829C52.6443 72 54.8829 69.7614 54.8829 67V55.1699H67.0002C69.7616 55.1699 72.0002 52.9313 72.0002 50.1699V49.1699C72.0002 46.4085 69.7616 44.1699 67.0002 44.1699H54.8829V32C54.8829 29.2386 52.6443 27 49.8829 27H49.0829Z" fill="#142D55"/>
</svg>
