<svg width="100" height="46" viewBox="0 0 100 46" fill="none" xmlns="http://www.w3.org/2000/svg">
<path d="M29 40H74V46H29V40Z" fill="#979797"/>
<path fill-rule="evenodd" clip-rule="evenodd" d="M17.5735 34.5882C26.7268 34.5882 34.1471 26.8454 34.1471 17.2941C34.1471 7.74284 26.7268 0 17.5735 0C8.42022 0 1 7.74284 1 17.2941C1 26.8454 8.42022 34.5882 17.5735 34.5882ZM17.5735 30.2647C22.7471 30.2647 26.9412 24.4576 26.9412 17.2941C26.9412 10.1306 22.7471 4.32352 17.5735 4.32352C12.3999 4.32352 8.20588 10.1306 8.20588 17.2941C8.20588 24.4576 12.3999 30.2647 17.5735 30.2647Z" fill="#979797"/>
<path fill-rule="evenodd" clip-rule="evenodd" d="M82.4265 34.5882C91.5798 34.5882 99 26.8454 99 17.2941C99 7.74284 91.5798 0 82.4265 0C73.2732 0 65.8529 7.74284 65.8529 17.2941C65.8529 26.8454 73.2732 34.5882 82.4265 34.5882ZM82.4265 30.2647C87.6001 30.2647 91.7941 24.4576 91.7941 17.2941C91.7941 10.1306 87.6001 4.32352 82.4265 4.32352C77.2529 4.32352 73.0588 10.1306 73.0588 17.2941C73.0588 24.4576 77.2529 30.2647 82.4265 30.2647Z" fill="#979797"/>
</svg>
