<svg width="100" height="100" viewBox="0 0 100 100" fill="none" xmlns="http://www.w3.org/2000/svg">
<path d="M47.5 8C47.5 6.61929 48.6193 5.5 50 5.5C51.3807 5.5 52.5 6.61929 52.5 8C52.5 16.9561 64.3569 20.1332 68.8349 12.3769C69.5253 11.1812 71.0543 10.7715 72.25 11.4619C73.4457 12.1522 73.8554 13.6812 73.1651 14.8769C68.687 22.6332 77.3668 31.313 85.1231 26.835C86.3188 26.1446 87.8478 26.5543 88.5381 27.75C89.2285 28.9458 88.8188 30.4747 87.6231 31.1651C79.8669 35.6431 83.0439 47.5 92 47.5C93.3807 47.5 94.5 48.6193 94.5 50C94.5 51.3807 93.3807 52.5 92 52.5C83.0439 52.5 79.8669 64.3569 87.6231 68.835C88.8188 69.5253 89.2285 71.0543 88.5382 72.2501C87.8478 73.4458 86.3188 73.8555 85.1231 73.1651C77.3669 68.6871 68.687 77.3668 73.165 85.1231C73.8554 86.3188 73.4457 87.8478 72.2499 88.5381C71.0542 89.2285 69.5252 88.8188 68.8349 87.6231C64.3568 79.8669 52.5 83.0439 52.5 92C52.5 93.3807 51.3807 94.5 50 94.5C48.6193 94.5 47.5 93.3807 47.5 92C47.5 83.0439 35.6431 79.8669 31.1651 87.6231C30.4747 88.8188 28.9457 89.2285 27.75 88.5381C26.5543 87.8478 26.1446 86.3188 26.8349 85.1231C31.313 77.3669 22.6331 68.687 14.8769 73.1651C13.6812 73.8554 12.1522 73.4458 11.4619 72.25C10.7715 71.0543 11.1812 69.5253 12.3769 68.835C20.1331 64.3569 16.9561 52.5 8 52.5C6.61929 52.5 5.5 51.3807 5.5 50C5.5 48.6193 6.61929 47.5 8 47.5C16.9561 47.5 20.1332 35.6432 12.377 31.1651C11.1813 30.4748 10.7716 28.9458 11.4619 27.7501C12.1523 26.5543 13.6813 26.1446 14.877 26.835C22.6332 31.313 31.3129 22.6331 26.8349 14.8769C26.1445 13.6812 26.5542 12.1522 27.7499 11.4619C28.9457 10.7715 30.4747 11.1812 31.165 12.3769C35.6431 20.1332 47.5 16.9561 47.5 8Z" fill="#2463AA" stroke="#2463AA"/>
<circle cx="50" cy="50" r="21" stroke="white" stroke-width="6"/>
</svg>
