<svg width="100" height="100" viewBox="0 0 100 100" fill="none" xmlns="http://www.w3.org/2000/svg">
<rect x="34" y="67" width="32" height="5" fill="white"/>
<path fill-rule="evenodd" clip-rule="evenodd" d="M26.5 64C32.8513 64 38 58.6274 38 52C38 45.3726 32.8513 40 26.5 40C20.1487 40 15 45.3726 15 52C15 58.6274 20.1487 64 26.5 64ZM26.5 61C30.0899 61 33 56.9706 33 52C33 47.0294 30.0899 43 26.5 43C22.9101 43 20 47.0294 20 52C20 56.9706 22.9101 61 26.5 61Z" fill="white"/>
<path fill-rule="evenodd" clip-rule="evenodd" d="M71.5 64C77.8513 64 83 58.6274 83 52C83 45.3726 77.8513 40 71.5 40C65.1487 40 60 45.3726 60 52C60 58.6274 65.1487 64 71.5 64ZM71.5 61C75.0899 61 78 56.9706 78 52C78 47.0294 75.0899 43 71.5 43C67.9101 43 65 47.0294 65 52C65 56.9706 67.9101 61 71.5 61Z" fill="white"/>
</svg>
