<svg width="100" height="100" viewBox="0 0 100 100" fill="none" xmlns="http://www.w3.org/2000/svg">
<path fill-rule="evenodd" clip-rule="evenodd" d="M70.5059 25.7016C64.1338 23.3097 57.2218 22 50 22C30.5393 22 13.328 31.51 2.87182 46.0805C0.973452 48.7258 0.973451 52.2742 2.87182 54.9195C9.43569 64.0661 18.6616 71.2186 29.4348 75.2761L33.5119 70.3549C23.0104 66.8754 14.0199 60.1632 7.74651 51.4213C7.34856 50.8668 7.34856 50.1332 7.74651 49.5787C17.1125 36.5273 32.5348 28 50 28C55.7443 28 61.2676 28.9224 66.427 30.6249L70.5059 25.7016ZM61.0667 37.095C58.0928 34.5424 54.2265 33 50 33C40.6112 33 33 40.6112 33 50C33 55.3701 35.4899 60.1586 39.3782 63.274L45.1219 56.3412C43.2233 54.8784 42 52.5821 42 50C42 45.5817 45.5817 42 50 42C52.044 42 53.9089 42.7666 55.3231 44.0279L61.0667 37.095ZM57.9031 48.751L64.3816 40.9311C66.0401 43.5557 67 46.6658 67 50C67 59.3888 59.3888 67 50 67C47.798 67 45.6937 66.5813 43.7626 65.8193L50.2436 57.9964C54.5492 57.8676 58 54.3368 58 50C58 49.5751 57.9669 49.158 57.9031 48.751ZM38.8053 71.8029C42.4093 72.5867 46.1551 73 50 73C67.4652 73 82.8875 64.4727 92.2535 51.4213C92.6514 50.8668 92.6514 50.1332 92.2535 49.5787C86.9701 42.2164 79.7596 36.2937 71.3423 32.5292L75.2998 27.7525C84.0433 31.9695 91.5478 38.3043 97.1282 46.0805C99.0265 48.7258 99.0265 52.2742 97.1282 54.9195C86.672 69.49 69.4607 79 50 79C44.6497 79 39.4693 78.2812 34.5527 76.936L38.8053 71.8029Z" fill="black"/>
<rect x="79.5141" y="7" width="5" height="99.5564" transform="rotate(39.6407 79.5141 7)" fill="black"/>
</svg>
