<svg width="100" height="54" viewBox="0 0 100 54" fill="none" xmlns="http://www.w3.org/2000/svg">
<rect x="3" y="2" width="94" height="50" rx="5" fill="#2463AA"/>
<rect x="49" y="2" width="2" height="50" fill="white"/>
<path d="M21.8439 21.4H22.0839V24.01H21.8439C20.6639 24.01 19.5639 24.24 18.5439 24.7C17.5239 25.16 16.7239 25.8 16.1439 26.62V37H13.4139V21.7H15.8139L16.1439 23.62V24.07H16.2039C17.6439 22.29 19.5239 21.4 21.8439 21.4ZM30.2655 37.3C28.6055 37.3 27.2955 36.74 26.3355 35.62C25.3755 34.5 24.8955 33.1 24.8955 31.42V21.7H27.6255V31.12C27.6255 33.56 28.7255 34.78 30.9255 34.78C32.6655 34.78 34.3055 33.82 35.8455 31.9V21.7H38.5755V37H36.1755L35.8455 35.08V34.63H35.7855C34.1655 36.41 32.3255 37.3 30.2655 37.3Z" fill="white"/>
<path d="M64.2763 37.3C62.6163 37.3 61.3063 36.74 60.3463 35.62C59.3863 34.5 58.9063 33.1 58.9063 31.42V21.7H61.6363V31.12C61.6363 33.56 62.7363 34.78 64.9363 34.78C66.6763 34.78 68.3163 33.82 69.8563 31.9V21.7H72.5863V37H70.1863L69.8563 35.08V34.63H69.7963C68.1763 36.41 66.3363 37.3 64.2763 37.3ZM84.2368 27.85L91.1368 37H87.7768L82.3768 29.77H82.2868L80.0668 31.99V37H77.3368V15.1H80.0668V28.51H80.1568L86.7868 21.7H90.4468L84.2368 27.85Z" fill="white"/>
</svg>
