<svg width="267" height="267" viewBox="0 0 267 267" fill="none" xmlns="http://www.w3.org/2000/svg">
<g clip-path="url(#clip0_1_2)">
<path d="M126.199 159.936L119.43 151.051L219.885 187.541L126.456 160.113C126.353 160.083 126.263 160.021 126.199 159.936Z" fill="#C8DAEA" stroke="#2FA1FF"/>
<path d="M235.683 204.038L81.7704 136.847C79.6298 135.912 79.826 132.813 82.0675 132.156L131.797 117.581C132.054 117.505 132.304 117.407 132.544 117.287L141.69 112.714C142.088 112.515 142.454 112.258 142.777 111.952L174.814 81.5171C175.537 80.8299 176.717 81.0273 177.177 81.9124L238.901 200.594C239.989 202.685 237.843 204.981 235.683 204.038Z" fill="#FFFBFB" stroke="#2FA1FF"/>
<path d="M135.218 115.58L142.403 112.227L217.976 183.849C218.794 184.624 218.245 186 217.119 186C216.833 186 216.556 185.902 216.334 185.722L131.845 117.266L135.218 115.58Z" fill="#C8DAEA" stroke="#2FA1FF"/>
<rect x="202.703" width="57.5" height="0.843771" transform="rotate(56.4871 202.703 0)" fill="#2FA1FF"/>
<rect x="247.703" y="120" width="34.54" height="0.843771" transform="rotate(56.4871 247.703 120)" fill="#2FA1FF"/>
<rect x="124.703" width="34.54" height="0.843771" transform="rotate(56.4871 124.703 0)" fill="#2FA1FF"/>
<rect x="103.725" y="74.1948" width="20.03" height="0.843771" transform="rotate(56.4871 103.725 74.1948)" fill="#2FA1FF"/>
<rect x="13.9626" y="68.9822" width="34.54" height="0.843771" transform="rotate(56.4871 13.9626 68.9822)" fill="#2FA1FF"/>
<rect x="62.7035" y="164" width="34.54" height="0.843771" transform="rotate(56.4871 62.7035 164)" fill="#2FA1FF"/>
<rect x="157.703" y="190" width="16.9" height="0.843771" transform="rotate(56.4871 157.703 190)" fill="#2FA1FF"/>
<rect x="198.704" y="74" width="33.78" height="0.843771" transform="rotate(56.4871 198.704 74)" fill="#2FA1FF"/>
<rect x="243.704" y="194" width="33.78" height="0.843771" transform="rotate(56.4871 243.704 194)" fill="#2FA1FF"/>
<rect x="85.7035" y="15" width="33.78" height="0.843771" transform="rotate(56.4871 85.7035 15)" fill="#2FA1FF"/>
<rect x="99.7255" y="148.195" width="1" height="0.843771" transform="rotate(56.4871 99.7255 148.195)" fill="#2FA1FF"/>
<rect x="0.703491" y="129" width="33.78" height="0.843771" transform="rotate(56.4871 0.703491 129)" fill="#2FA1FF"/>
<rect x="58.7035" y="238" width="33.78" height="0.843771" transform="rotate(56.4871 58.7035 238)" fill="#2FA1FF"/>
<rect x="95.7035" y="190" width="79.2575" height="0.843771" transform="rotate(56.4871 95.7035 190)" fill="#2FA1FF"/>
<rect x="48.7035" y="58" width="49.81" height="0.843771" transform="rotate(56.4871 48.7035 58)" fill="#2FA1FF"/>
</g>
<defs>
<clipPath id="clip0_1_2">
<rect width="267" height="267" fill="white"/>
</clipPath>
</defs>
</svg>
