<svg width="100" height="100" viewBox="0 0 100 100" fill="none" xmlns="http://www.w3.org/2000/svg">
<path fill-rule="evenodd" clip-rule="evenodd" d="M78.617 29.0827C72.5465 26.3334 65.4329 24.7518 57.8276 24.7518C35.5595 24.7518 17.5077 38.311 17.5077 55.0372C17.5077 59.7702 18.9531 64.2496 21.5305 68.24C18.9603 67.076 16.5771 65.7027 14.4227 64.1515L3.52 68.24L5.72411 55.0153C3.33402 51.1453 2 46.8324 2 42.2855C2 25.5593 20.0518 12 42.3199 12C58.2868 12 72.086 18.9713 78.617 29.0827ZM97.76 54.56C97.76 62.7573 93.0865 70.157 85.5804 75.4137L84.84 88L74.2822 80.9615C69.3798 82.5546 63.9514 83.44 58.24 83.44C36.4137 83.44 18.72 70.51 18.72 54.56C18.72 38.61 36.4137 25.68 58.24 25.68C80.0663 25.68 97.76 38.61 97.76 54.56Z" fill="#2463AA"/>
</svg>
