<svg width="100" height="100" viewBox="0 0 100 100" fill="none" xmlns="http://www.w3.org/2000/svg">
<mask id="path-1-outside-1_10_71" maskUnits="userSpaceOnUse" x="10.9019" y="15.5713" width="71.9352" height="75.5955" fill="black">
<rect fill="white" x="10.9019" y="15.5713" width="71.9352" height="75.5955"/>
<path fill-rule="evenodd" clip-rule="evenodd" d="M52.5624 24.7598C53.7159 24.8514 53.5716 26.701 52.4632 27.0335C51.0205 27.4663 49.6048 28.072 48.2436 28.8579C38.7852 34.3187 35.5445 46.4131 41.0053 55.8716C46.4661 65.33 58.5606 68.5707 68.019 63.1098C69.7433 62.1143 71.2609 60.8984 72.5569 59.5181C73.349 58.6744 75.0665 59.3703 74.6331 60.4433C72.5361 65.6361 68.7536 70.193 63.5278 73.2101C51.0894 80.3914 35.1843 76.1297 28.003 63.6912C20.8216 51.2528 25.0834 35.3477 37.5218 28.1664C42.2571 25.4325 47.4948 24.357 52.5624 24.7598Z"/>
</mask>
<path d="M72.5569 59.5181L74.7439 61.5716L72.5569 59.5181ZM74.6331 60.4433L71.8514 59.32L74.6331 60.4433ZM49.7436 31.4559C50.902 30.7871 52.1036 30.2735 53.3253 29.907L51.6011 24.16C49.9374 24.6592 48.3075 25.3569 46.7436 26.2598L49.7436 31.4559ZM43.6034 54.3716C38.971 46.348 41.7201 36.0883 49.7436 31.4559L46.7436 26.2598C35.8503 32.549 32.118 46.4783 38.4072 57.3716L43.6034 54.3716ZM66.519 60.5118C58.4954 65.1442 48.2358 62.3951 43.6034 54.3716L38.4072 57.3716C44.6965 68.2649 58.6257 71.9972 69.519 65.7079L66.519 60.5118ZM70.3698 57.4646C69.2728 58.633 67.986 59.6648 66.519 60.5118L69.519 65.7079C71.5005 64.5639 73.249 63.1637 74.7439 61.5716L70.3698 57.4646ZM71.8514 59.32C69.9962 63.9139 66.6535 67.9414 62.0278 70.612L65.0278 75.8082C70.8537 72.4446 75.0761 67.3582 77.4149 61.5667L71.8514 59.32ZM62.0278 70.612C51.0242 76.9649 36.954 73.1948 30.6011 62.1912L25.4049 65.1912C33.4147 79.0646 51.1545 83.8179 65.0278 75.8082L62.0278 70.612ZM30.6011 62.1912C24.2481 51.1876 28.0183 37.1174 39.0218 30.7645L36.0218 25.5683C22.1485 33.5781 17.3951 51.3179 25.4049 65.1912L30.6011 62.1912ZM39.0218 30.7645C43.2144 28.3439 47.8434 27.3942 52.3247 27.7503L52.8001 21.7692C47.1463 21.3198 41.2999 22.5211 36.0218 25.5683L39.0218 30.7645ZM74.7439 61.5716C74.0571 62.3031 73.2332 62.1734 72.8758 62.0206C72.6485 61.9235 72.2603 61.6894 71.9788 61.1814C71.6473 60.5832 71.6252 59.8802 71.8514 59.32L77.4149 61.5667C77.8578 60.47 77.7834 59.2776 77.227 58.2734C76.7206 57.3595 75.9348 56.803 75.2333 56.5032C73.9275 55.9452 71.8488 55.8894 70.3698 57.4646L74.7439 61.5716ZM53.3253 29.907C55.396 29.2857 56.2722 27.399 56.3558 25.9831C56.4007 25.2221 56.254 24.271 55.6632 23.4098C55.0139 22.4634 53.9804 21.863 52.8001 21.7692L52.3247 27.7503C51.721 27.7024 51.1021 27.3675 50.7156 26.8041C50.3875 26.3259 50.3517 25.8751 50.3662 25.6295C50.3889 25.2445 50.6388 24.4488 51.6011 24.16L53.3253 29.907Z" fill="#2FA1FF" mask="url(#path-1-outside-1_10_71)"/>
</svg>
