<svg width="100" height="100" viewBox="0 0 100 100" fill="none" xmlns="http://www.w3.org/2000/svg">
<rect x="15" y="5" width="70" height="90" rx="4" fill="#2463AA"/>
<rect x="52" y="33" width="13" height="5" rx="2" fill="white"/>
<rect x="52" y="40" width="22" height="5" rx="2" fill="white"/>
<rect x="22" y="26" width="27" height="19" rx="2" fill="white"/>
<rect x="52" y="26" width="28" height="5" rx="2" fill="white"/>
<rect x="21" y="67" width="43" height="5" rx="2" fill="white"/>
<rect x="71" y="33" width="9" height="5" rx="2" fill="white"/>
<rect x="69" y="67" width="10" height="5" rx="2" fill="white"/>
<rect x="75" y="40" width="5" height="5" rx="2" fill="white"/>
<path d="M29.479 8.624V9.644H26.587V17H25.495V9.644H22.603V8.624H29.479ZM36.0349 13.94V14.324H31.4029C31.4669 14.884 31.6749 15.32 32.0269 15.632C32.3789 15.944 32.9109 16.1 33.6229 16.1C34.3429 16.1 35.0069 15.9 35.6149 15.5H35.6749V16.556C35.0029 16.932 34.2109 17.12 33.2989 17.12C32.3949 17.12 31.6669 16.844 31.1149 16.292C30.5709 15.732 30.2989 14.98 30.2989 14.036C30.2989 13.084 30.5429 12.3 31.0309 11.684C31.5189 11.068 32.2309 10.76 33.1669 10.76C34.1029 10.76 34.8149 11.068 35.3029 11.684C35.7909 12.3 36.0349 13.052 36.0349 13.94ZM31.4029 13.436H34.9429C34.9109 12.86 34.7149 12.424 34.3549 12.128C34.0029 11.832 33.6069 11.684 33.1669 11.684C32.7269 11.684 32.3309 11.832 31.9789 12.128C31.6269 12.424 31.4349 12.86 31.4029 13.436ZM42.8787 13.94V14.324H38.2467C38.3107 14.884 38.5187 15.32 38.8707 15.632C39.2227 15.944 39.7547 16.1 40.4667 16.1C41.1867 16.1 41.8507 15.9 42.4587 15.5H42.5187V16.556C41.8467 16.932 41.0547 17.12 40.1427 17.12C39.2387 17.12 38.5107 16.844 37.9587 16.292C37.4147 15.732 37.1427 14.98 37.1427 14.036C37.1427 13.084 37.3867 12.3 37.8747 11.684C38.3627 11.068 39.0747 10.76 40.0107 10.76C40.9467 10.76 41.6587 11.068 42.1467 11.684C42.6347 12.3 42.8787 13.052 42.8787 13.94ZM38.2467 13.436H41.7867C41.7547 12.86 41.5587 12.424 41.1987 12.128C40.8467 11.832 40.4507 11.684 40.0107 11.684C39.5707 11.684 39.1747 11.832 38.8227 12.128C38.4707 12.424 38.2787 12.86 38.2467 13.436ZM47.6704 10.76C48.3344 10.76 48.8584 10.984 49.2424 11.432C49.6264 11.88 49.8184 12.44 49.8184 13.112V17H48.7264V13.232C48.7264 12.256 48.2864 11.768 47.4064 11.768C46.7104 11.768 46.0544 12.152 45.4384 12.92V17H44.3464V10.88H45.3064L45.4384 11.648V11.828H45.4624C46.1104 11.116 46.8464 10.76 47.6704 10.76ZM58.8469 10.88H59.9989L57.8989 17H56.8309L55.4389 12.62H55.4029L54.0109 17H52.9429L50.8429 10.88H51.9949L53.4469 15.68H53.4829L54.9709 10.88H55.8709L57.3589 15.68H57.3949L58.8469 10.88ZM60.7088 13.94C60.7088 12.988 60.9888 12.22 61.5488 11.636C62.1088 11.052 62.8488 10.76 63.7688 10.76C64.6968 10.76 65.4408 11.052 66.0008 11.636C66.5688 12.22 66.8528 12.988 66.8528 13.94C66.8528 14.892 66.5688 15.66 66.0008 16.244C65.4408 16.828 64.6968 17.12 63.7688 17.12C62.8488 17.12 62.1088 16.828 61.5488 16.244C60.9888 15.66 60.7088 14.892 60.7088 13.94ZM62.3888 15.584C62.7888 15.944 63.2528 16.124 63.7808 16.124C64.3088 16.124 64.7688 15.944 65.1608 15.584C65.5608 15.216 65.7608 14.668 65.7608 13.94C65.7608 13.204 65.5608 12.656 65.1608 12.296C64.7688 11.936 64.3088 11.756 63.7808 11.756C63.2528 11.756 62.7888 11.936 62.3888 12.296C61.9968 12.656 61.8008 13.204 61.8008 13.94C61.8008 14.668 61.9968 15.216 62.3888 15.584ZM71.7536 10.76H71.8496V11.804H71.7536C71.2816 11.804 70.8416 11.896 70.4336 12.08C70.0256 12.264 69.7056 12.52 69.4736 12.848V17H68.3816V10.88H69.3416L69.4736 11.648V11.828H69.4976C70.0736 11.116 70.8256 10.76 71.7536 10.76ZM75.7822 13.34L78.5422 17H77.1982L75.0382 14.108H75.0022L74.1142 14.996V17H73.0222V8.24H74.1142V13.604H74.1502L76.8022 10.88H78.2662L75.7822 13.34Z" fill="white"/>
<rect x="21" y="56" width="58" height="5" rx="2" fill="white"/>
<rect x="21" y="78" width="25" height="5" rx="2" fill="white"/>
<rect x="54" y="78" width="25" height="5" rx="2" fill="white"/>
</svg>
