<svg width="300" height="300" viewBox="0 0 300 300" fill="none" xmlns="http://www.w3.org/2000/svg">
<rect x="11" width="234" height="300" rx="14" fill="#2FA1FF"/>
<rect x="134" y="93" width="55" height="18" rx="9" fill="white"/>
<rect x="134" y="117" width="75" height="15" rx="7.5" fill="white"/>
<rect x="35" y="69" width="90" height="63" rx="14" fill="white"/>
<rect x="134" y="69" width="93" height="18" rx="9" fill="white"/>
<rect x="32" y="207" width="141" height="15" rx="7.5" fill="white"/>
<rect x="197" y="93" width="30" height="18" rx="9" fill="white"/>
<rect x="191" y="207" width="33" height="15" rx="7.5" fill="white"/>
<rect x="212" y="117" width="15" height="15" rx="7.5" fill="white"/>
<path d="M72.444 20.664V23.384H64.732V43H61.82V23.384H54.108V20.664H72.444ZM89.9265 34.84V35.864H77.5745C77.7452 37.3573 78.2998 38.52 79.2385 39.352C80.1772 40.184 81.5958 40.6 83.4945 40.6C85.4145 40.6 87.1852 40.0667 88.8065 39H88.9665V41.816C87.1745 42.8187 85.0625 43.32 82.6305 43.32C80.2198 43.32 78.2785 42.584 76.8065 41.112C75.3558 39.6187 74.6305 37.6133 74.6305 35.096C74.6305 32.5573 75.2812 30.4667 76.5825 28.824C77.8838 27.1813 79.7825 26.36 82.2785 26.36C84.7745 26.36 86.6732 27.1813 87.9745 28.824C89.2758 30.4667 89.9265 32.472 89.9265 34.84ZM77.5745 33.496H87.0145C86.9292 31.96 86.4065 30.7973 85.4465 30.008C84.5078 29.2187 83.4518 28.824 82.2785 28.824C81.1052 28.824 80.0492 29.2187 79.1105 30.008C78.1718 30.7973 77.6598 31.96 77.5745 33.496ZM108.177 34.84V35.864H95.8245C95.9952 37.3573 96.5498 38.52 97.4885 39.352C98.4272 40.184 99.8458 40.6 101.745 40.6C103.665 40.6 105.435 40.0667 107.057 39H107.217V41.816C105.425 42.8187 103.313 43.32 100.881 43.32C98.4698 43.32 96.5285 42.584 95.0565 41.112C93.6058 39.6187 92.8805 37.6133 92.8805 35.096C92.8805 32.5573 93.5312 30.4667 94.8325 28.824C96.1338 27.1813 98.0325 26.36 100.529 26.36C103.025 26.36 104.923 27.1813 106.225 28.824C107.526 30.4667 108.177 32.472 108.177 34.84ZM95.8245 33.496H105.265C105.179 31.96 104.657 30.7973 103.697 30.008C102.758 29.2187 101.702 28.824 100.529 28.824C99.3552 28.824 98.2992 29.2187 97.3605 30.008C96.4218 30.7973 95.9098 31.96 95.8245 33.496ZM120.955 26.36C122.725 26.36 124.123 26.9573 125.147 28.152C126.171 29.3467 126.683 30.84 126.683 32.632V43H123.771V32.952C123.771 30.3493 122.597 29.048 120.251 29.048C118.395 29.048 116.645 30.072 115.003 32.12V43H112.091V26.68H114.651L115.003 28.728V29.208H115.067C116.795 27.3093 118.757 26.36 120.955 26.36ZM150.759 26.68H153.831L148.231 43H145.383L141.671 31.32H141.575L137.863 43H135.015L129.415 26.68H132.487L136.359 39.48H136.455L140.423 26.68H142.823L146.791 39.48H146.887L150.759 26.68ZM155.724 34.84C155.724 32.3013 156.47 30.2533 157.964 28.696C159.457 27.1387 161.43 26.36 163.884 26.36C166.358 26.36 168.342 27.1387 169.836 28.696C171.35 30.2533 172.108 32.3013 172.108 34.84C172.108 37.3787 171.35 39.4267 169.836 40.984C168.342 42.5413 166.358 43.32 163.884 43.32C161.43 43.32 159.457 42.5413 157.964 40.984C156.47 39.4267 155.724 37.3787 155.724 34.84ZM160.204 39.224C161.27 40.184 162.508 40.664 163.916 40.664C165.324 40.664 166.55 40.184 167.596 39.224C168.662 38.2427 169.196 36.7813 169.196 34.84C169.196 32.8773 168.662 31.416 167.596 30.456C166.55 29.496 165.324 29.016 163.916 29.016C162.508 29.016 161.27 29.496 160.204 30.456C159.158 31.416 158.636 32.8773 158.636 34.84C158.636 36.7813 159.158 38.2427 160.204 39.224ZM185.176 26.36H185.432V29.144H185.176C183.918 29.144 182.744 29.3893 181.656 29.88C180.568 30.3707 179.715 31.0533 179.096 31.928V43H176.184V26.68H178.744L179.096 28.728V29.208H179.16C180.696 27.3093 182.702 26.36 185.176 26.36ZM195.919 33.24L203.279 43H199.695L193.935 35.288H193.839L191.471 37.656V43H188.559V19.64H191.471V33.944H191.567L198.639 26.68H202.543L195.919 33.24Z" fill="white"/>
<rect x="32" y="171" width="192" height="15" rx="7.5" fill="white"/>
<rect x="32" y="243" width="93" height="18" rx="9" fill="white"/>
<rect x="140" y="243" width="84" height="18" rx="9" fill="white"/>
</svg>
