<svg width="100" height="67" viewBox="0 0 100 67" fill="none" xmlns="http://www.w3.org/2000/svg">
<g clip-path="url(#clip0_20_254)">
<rect x="2" y="2" width="96" height="63" rx="10" fill="#2FA1FF"/>
<path d="M29.479 7.624V8.644H26.587V16H25.495V8.644H22.603V7.624H29.479ZM36.0349 12.94V13.324H31.4029C31.4669 13.884 31.6749 14.32 32.0269 14.632C32.3789 14.944 32.9109 15.1 33.6229 15.1C34.3429 15.1 35.0069 14.9 35.6149 14.5H35.6749V15.556C35.0029 15.932 34.2109 16.12 33.2989 16.12C32.3949 16.12 31.6669 15.844 31.1149 15.292C30.5709 14.732 30.2989 13.98 30.2989 13.036C30.2989 12.084 30.5429 11.3 31.0309 10.684C31.5189 10.068 32.2309 9.76 33.1669 9.76C34.1029 9.76 34.8149 10.068 35.3029 10.684C35.7909 11.3 36.0349 12.052 36.0349 12.94ZM31.4029 12.436H34.9429C34.9109 11.86 34.7149 11.424 34.3549 11.128C34.0029 10.832 33.6069 10.684 33.1669 10.684C32.7269 10.684 32.3309 10.832 31.9789 11.128C31.6269 11.424 31.4349 11.86 31.4029 12.436ZM42.8787 12.94V13.324H38.2467C38.3107 13.884 38.5187 14.32 38.8707 14.632C39.2227 14.944 39.7547 15.1 40.4667 15.1C41.1867 15.1 41.8507 14.9 42.4587 14.5H42.5187V15.556C41.8467 15.932 41.0547 16.12 40.1427 16.12C39.2387 16.12 38.5107 15.844 37.9587 15.292C37.4147 14.732 37.1427 13.98 37.1427 13.036C37.1427 12.084 37.3867 11.3 37.8747 10.684C38.3627 10.068 39.0747 9.76 40.0107 9.76C40.9467 9.76 41.6587 10.068 42.1467 10.684C42.6347 11.3 42.8787 12.052 42.8787 12.94ZM38.2467 12.436H41.7867C41.7547 11.86 41.5587 11.424 41.1987 11.128C40.8467 10.832 40.4507 10.684 40.0107 10.684C39.5707 10.684 39.1747 10.832 38.8227 11.128C38.4707 11.424 38.2787 11.86 38.2467 12.436ZM47.6704 9.76C48.3344 9.76 48.8584 9.984 49.2424 10.432C49.6264 10.88 49.8184 11.44 49.8184 12.112V16H48.7264V12.232C48.7264 11.256 48.2864 10.768 47.4064 10.768C46.7104 10.768 46.0544 11.152 45.4384 11.92V16H44.3464V9.88H45.3064L45.4384 10.648V10.828H45.4624C46.1104 10.116 46.8464 9.76 47.6704 9.76ZM58.8469 9.88H59.9989L57.8989 16H56.8309L55.4389 11.62H55.4029L54.0109 16H52.9429L50.8429 9.88H51.9949L53.4469 14.68H53.4829L54.9709 9.88H55.8709L57.3589 14.68H57.3949L58.8469 9.88ZM60.7088 12.94C60.7088 11.988 60.9888 11.22 61.5488 10.636C62.1088 10.052 62.8488 9.76 63.7688 9.76C64.6968 9.76 65.4408 10.052 66.0008 10.636C66.5688 11.22 66.8528 11.988 66.8528 12.94C66.8528 13.892 66.5688 14.66 66.0008 15.244C65.4408 15.828 64.6968 16.12 63.7688 16.12C62.8488 16.12 62.1088 15.828 61.5488 15.244C60.9888 14.66 60.7088 13.892 60.7088 12.94ZM62.3888 14.584C62.7888 14.944 63.2528 15.124 63.7808 15.124C64.3088 15.124 64.7688 14.944 65.1608 14.584C65.5608 14.216 65.7608 13.668 65.7608 12.94C65.7608 12.204 65.5608 11.656 65.1608 11.296C64.7688 10.936 64.3088 10.756 63.7808 10.756C63.2528 10.756 62.7888 10.936 62.3888 11.296C61.9968 11.656 61.8008 12.204 61.8008 12.94C61.8008 13.668 61.9968 14.216 62.3888 14.584ZM71.7536 9.76H71.8496V10.804H71.7536C71.2816 10.804 70.8416 10.896 70.4336 11.08C70.0256 11.264 69.7056 11.52 69.4736 11.848V16H68.3816V9.88H69.3416L69.4736 10.648V10.828H69.4976C70.0736 10.116 70.8256 9.76 71.7536 9.76ZM75.7822 12.34L78.5422 16H77.1982L75.0382 13.108H75.0022L74.1142 13.996V16H73.0222V7.24H74.1142V12.604H74.1502L76.8022 9.88H78.2662L75.7822 12.34Z" fill="white"/>
<path d="M34 55C36.7614 55 39.0706 52.7145 38.27 50.0717C37.466 47.4178 36.0174 44.9757 34.0208 42.9792C30.8327 39.7911 26.5087 38 22 38C17.4913 38 13.1673 39.7911 9.97919 42.9792C7.98264 44.9757 6.53399 47.4178 5.73002 50.0717C4.9294 52.7145 7.23858 55 10 55L22 55H34Z" fill="white"/>
<circle cx="22" cy="31" r="9" fill="white"/>
<rect x="46" y="25" width="47" height="6" rx="3" fill="white"/>
<rect x="46" y="35" width="29" height="6" rx="3" fill="white"/>
<rect x="81" y="35" width="12" height="6" rx="3" fill="white"/>
<rect x="68" y="45" width="25" height="6" rx="3" fill="white"/>
<rect x="46" y="45" width="19" height="6" rx="3" fill="white"/>
</g>
<defs>
<clipPath id="clip0_20_254">
<rect width="100" height="67" fill="white"/>
</clipPath>
</defs>
</svg>
