<svg width="1000" height="560" viewBox="0 0 1000 560" fill="none" xmlns="http://www.w3.org/2000/svg">
<g clip-path="url(#clip0_1_2)">
<rect width="1000" height="560" fill="white"/>
<rect x="-2" width="1002" height="560" fill="#E7DAC7"/>
<path d="M-1.62122 455.53L-1.62122 514.394L10.0455 504.318L10.0455 444.394L-1.62122 455.53Z" fill="#8E7BFF"/>
<path d="M-1.62122 356.894L-1.62122 415.758L10.0455 405.682L10.0455 345.758L-1.62122 356.894Z" fill="#F43C3C"/>
<path d="M-1.62122 258.258L-1.62122 317.121L10.0455 307.045L10.0455 247.121L-1.62122 258.258Z" fill="#8E7BFF"/>
<path d="M-1.62122 159.621L-1.62122 218.485L10.0455 208.409L10.0455 148.485L-1.62122 159.621Z" fill="#F43C3C"/>
<path d="M-1.62122 60.9848L-1.62122 119.848L10.0455 109.773L10.0455 49.8484L-1.62122 60.9848Z" fill="#8E7BFF"/>
<path d="M987.924 99.1667V40.303L999.591 50.3788V110.303L987.924 99.1667Z" fill="#8E7BFF"/>
<path d="M987.924 197.803V138.939L999.591 149.015V208.939L987.924 197.803Z" fill="#F43C3C"/>
<path d="M987.924 296.439V237.576L999.591 247.652V307.576L987.924 296.439Z" fill="#8E7BFF"/>
<path d="M987.924 395.076V336.212L999.591 346.288V406.212L987.924 395.076Z" fill="#F43C3C"/>
<path d="M987.924 493.712V434.848L999.591 444.924V504.848L987.924 493.712Z" fill="#8E7BFF"/>
<path d="M10.5758 548.333H69.4394L59.3636 560H-0.560608L10.5758 548.333Z" fill="#F43C3C"/>
<path d="M108.682 548.333H167.545L157.47 560H97.5455L108.682 548.333Z" fill="#8E7BFF"/>
<path d="M206.258 548.333H265.121L255.045 560H195.121L206.258 548.333Z" fill="#F43C3C"/>
<path d="M304.364 548.333H363.227L353.152 560H293.227L304.364 548.333Z" fill="#8E7BFF"/>
<path d="M402.47 548.333H461.333L451.258 560H391.333L402.47 548.333Z" fill="#F43C3C"/>
<path d="M500.576 548.333H559.439L549.364 560H489.439L500.576 548.333Z" fill="#8E7BFF"/>
<path d="M598.151 548.333H657.015L646.939 560H587.015L598.151 548.333Z" fill="#F43C3C"/>
<path d="M696.258 548.333H755.121L745.045 560H685.121L696.258 548.333Z" fill="#8E7BFF"/>
<path d="M794.894 548.333H853.758L843.682 560H783.758L794.894 548.333Z" fill="#F43C3C"/>
<path d="M892.47 548.333H951.333L941.258 560H881.333L892.47 548.333Z" fill="#8E7BFF"/>
<path d="M990.576 548.333H1000.12V560H979.439L990.576 548.333Z" fill="#F43C3C"/>
<path d="M10.0455 0H68.9091L58.8333 11.6667H-1.09091L10.0455 0Z" fill="#F43C3C"/>
<path d="M108.151 0H167.015L156.939 11.6667H97.0151L108.151 0Z" fill="#8E7BFF"/>
<path d="M205.727 0H264.591L254.515 11.6667H194.591L205.727 0Z" fill="#F43C3C"/>
<path d="M303.833 0H362.697L352.621 11.6667H292.697L303.833 0Z" fill="#8E7BFF"/>
<path d="M401.939 0H460.803L450.727 11.6667H390.803L401.939 0Z" fill="#F43C3C"/>
<path d="M500.045 0H558.909L548.833 11.6667H488.909L500.045 0Z" fill="#8E7BFF"/>
<path d="M597.621 0H656.485L646.409 11.6667H586.485L597.621 0Z" fill="#F43C3C"/>
<path d="M695.727 0H754.591L744.515 11.6667H684.591L695.727 0Z" fill="#8E7BFF"/>
<path d="M794.364 0H853.227L843.152 11.6667H783.227L794.364 0Z" fill="#F43C3C"/>
<path d="M891.939 0H950.803L940.727 11.6667H880.803L891.939 0Z" fill="#8E7BFF"/>
<path d="M990.045 0H999.591V11.6667H978.909L990.045 0Z" fill="#F43C3C"/>
</g>
<defs>
<clipPath id="clip0_1_2">
<rect width="1000" height="560" fill="white"/>
</clipPath>
</defs>
</svg>
