<svg width="100" height="100" viewBox="0 0 100 100" fill="none" xmlns="http://www.w3.org/2000/svg">
<mask id="path-1-inside-1_23_62" fill="white">
<path fill-rule="evenodd" clip-rule="evenodd" d="M2.87182 54.9195C0.973451 52.2742 0.973451 48.7258 2.87182 46.0805C13.328 31.51 30.5393 22 50 22C69.4607 22 86.672 31.51 97.1282 46.0805C99.0265 48.7258 99.0266 52.2742 97.1282 54.9195C86.672 69.49 69.4607 79 50 79C30.5393 79 13.328 69.49 2.87182 54.9195Z"/>
</mask>
<path d="M97.1282 46.0805L102.003 42.5823L97.1282 46.0805ZM7.74651 49.5787C17.1125 36.5273 32.5348 28 50 28V16C28.5439 16 9.54345 26.4927 -2.00287 42.5823L7.74651 49.5787ZM50 28C67.4652 28 82.8875 36.5273 92.2535 49.5787L102.003 42.5823C90.4566 26.4927 71.4561 16 50 16V28ZM92.2535 51.4213C82.8875 64.4727 67.4652 73 50 73V85C71.4561 85 90.4566 74.5073 102.003 58.4177L92.2535 51.4213ZM50 73C32.5348 73 17.1125 64.4727 7.74651 51.4213L-2.00287 58.4177C9.54345 74.5073 28.5439 85 50 85V73ZM92.2535 49.5787C92.6514 50.1332 92.6514 50.8668 92.2535 51.4213L102.003 58.4177C105.402 53.6816 105.402 47.3184 102.003 42.5823L92.2535 49.5787ZM-2.00287 42.5823C-5.40165 47.3184 -5.40165 53.6816 -2.00287 58.4177L7.74651 51.4213C7.34856 50.8668 7.34856 50.1332 7.74651 49.5787L-2.00287 42.5823Z" fill="black" mask="url(#path-1-inside-1_23_62)"/>
<circle cx="50" cy="50" r="12.5" stroke="black" stroke-width="9"/>
</svg>
