<svg width="100" height="100" viewBox="0 0 100 100" fill="none" xmlns="http://www.w3.org/2000/svg">
<circle cx="42.5" cy="30.5" r="18" stroke="#C4C4C4" stroke-width="5"/>
<mask id="path-2-inside-1_23_9" fill="white">
<path fill-rule="evenodd" clip-rule="evenodd" d="M27.8085 50.7455C27.6948 50.7914 27.5812 50.8379 27.4677 50.8848C22.4624 52.9581 17.9144 55.997 14.0835 59.8279C10.2525 63.6589 7.21368 68.2068 5.14039 73.2122C3.06711 78.2175 2 83.5822 2 89L43.2556 89H84.5111C84.5111 83.5822 83.444 78.2175 81.3707 73.2122C79.2974 68.2068 76.2586 63.6589 72.4276 59.8279C68.5967 55.997 64.0487 52.9581 59.0434 50.8848C58.7265 50.7536 58.4081 50.6264 58.0885 50.5032C54.0891 54.2371 48.7198 56.5222 42.8167 56.5222C37.0423 56.5222 31.7787 54.3357 27.8085 50.7455Z"/>
</mask>
<path d="M27.8085 50.7455L31.1622 47.0369L28.8398 44.9368L25.9364 46.1092L27.8085 50.7455ZM27.4677 50.8848L29.3812 55.5042L29.3812 55.5042L27.4677 50.8848ZM14.0835 59.8279L17.619 63.3635L17.619 63.3635L14.0835 59.8279ZM5.14039 73.2122L9.75979 75.1256L9.75979 75.1256L5.14039 73.2122ZM2 89H-3V94H2L2 89ZM43.2556 89V84V89ZM84.5111 89V94H89.5111V89H84.5111ZM81.3707 73.2122L85.9901 71.2988V71.2988L81.3707 73.2122ZM59.0434 50.8848L60.9568 46.2654V46.2654L59.0434 50.8848ZM58.0885 50.5032L59.8861 45.8375L56.9647 44.7119L54.6763 46.8485L58.0885 50.5032ZM25.9364 46.1092C25.8089 46.1607 25.6815 46.2128 25.5543 46.2654L29.3812 55.5042C29.4808 55.463 29.5807 55.4221 29.6807 55.3817L25.9364 46.1092ZM25.5543 46.2654C19.9423 48.59 14.8432 51.9972 10.5479 56.2924L17.619 63.3635C20.9856 59.9968 24.9824 57.3263 29.3812 55.5042L25.5543 46.2654ZM10.5479 56.2924C6.25271 60.5876 2.84555 65.6868 0.520993 71.2988L9.75979 75.1256C11.5818 70.7269 14.2524 66.7301 17.619 63.3635L10.5479 56.2924ZM0.520993 71.2988C-1.80357 76.9108 -3 82.9256 -3 89H7C7 84.2389 7.93778 79.5243 9.75979 75.1256L0.520993 71.2988ZM2 94L43.2556 94V84L2 84L2 94ZM43.2556 94H84.5111V84H43.2556V94ZM89.5111 89C89.5111 82.9256 88.3147 76.9108 85.9901 71.2988L76.7513 75.1256C78.5733 79.5243 79.5111 84.2389 79.5111 89H89.5111ZM85.9901 71.2988C83.6656 65.6868 80.2584 60.5876 75.9632 56.2924L68.8921 63.3635C72.2587 66.7301 74.9293 70.7269 76.7513 75.1256L85.9901 71.2988ZM75.9632 56.2924C71.6679 51.9972 66.5688 48.59 60.9568 46.2654L57.13 55.5042C61.5287 57.3263 65.5255 59.9968 68.8921 63.3635L75.9632 56.2924ZM60.9568 46.2654C60.6015 46.1183 60.2446 45.9756 59.8861 45.8375L56.2908 55.1688C56.5717 55.2771 56.8515 55.3889 57.13 55.5042L60.9568 46.2654ZM54.6763 46.8485C51.5661 49.7522 47.4036 51.5222 42.8167 51.5222V61.5222C50.0359 61.5222 56.6121 58.722 61.5006 54.1579L54.6763 46.8485ZM42.8167 51.5222C38.3292 51.5222 34.249 49.8284 31.1622 47.0369L24.4549 54.454C29.3084 58.843 35.7555 61.5222 42.8167 61.5222V51.5222Z" fill="#C4C4C4" mask="url(#path-2-inside-1_23_9)"/>
<rect x="81" y="25" width="4" height="32" rx="2" fill="#C4C4C4"/>
<rect x="67" y="43" width="4" height="32" rx="2" transform="rotate(-90 67 43)" fill="#C4C4C4"/>
</svg>
