<svg width="997" height="200" viewBox="0 0 997 200" fill="none" xmlns="http://www.w3.org/2000/svg">
<g clip-path="url(#clip0_19_2)">
<path d="M73.6807 193.236C67.6338 196.092 61.9648 197.52 56.6738 197.52C37.6094 197.52 28.0771 186.098 28.0771 163.254V76.582H4.89746V66H28.0771V32.4902C29.9248 31.8184 31.8564 31.1465 33.8721 30.4746C35.8877 29.8867 37.8193 29.2568 39.667 28.585V66H73.6807V76.582H39.667V161.742C39.667 170.645 41.0527 177.111 43.8242 181.143C46.6797 185.09 51.4668 187.063 58.1855 187.063C62.9727 187.063 68.1377 185.51 73.6807 182.402V193.236ZM102.025 131.004C102.025 148.725 106.099 162.582 114.245 172.576C122.476 182.57 133.729 187.567 148.007 187.567C162.452 187.567 176.562 182.234 190.335 171.568V183.914C176.981 193.404 162.074 198.149 145.613 198.149C128.984 198.149 115.547 192.187 105.301 180.261C95.0547 168.335 89.9316 151.496 89.9316 129.744C89.9316 110.932 95.2646 95.1006 105.931 82.251C116.681 69.3174 130.622 62.8506 147.755 62.8506C163.796 62.8506 176.1 68.4775 184.666 79.7314C193.232 90.9854 197.516 106.354 197.516 125.839V131.004H102.025ZM185.422 120.422C184.918 105.557 181.349 94.0088 174.714 85.7783C168.079 77.5479 158.925 73.4326 147.251 73.4326C135.157 73.4326 125.121 77.5059 117.143 85.6523C109.248 93.7148 104.377 105.305 102.529 120.422H185.422ZM232.285 131.004C232.285 148.725 236.358 162.582 244.505 172.576C252.735 182.57 263.989 187.567 278.267 187.567C292.712 187.567 306.821 182.234 320.595 171.568V183.914C307.241 193.404 292.334 198.149 275.873 198.149C259.244 198.149 245.807 192.187 235.561 180.261C225.314 168.335 220.191 151.496 220.191 129.744C220.191 110.932 225.524 95.1006 236.19 82.251C246.94 69.3174 260.882 62.8506 278.015 62.8506C294.056 62.8506 306.359 68.4775 314.926 79.7314C323.492 90.9854 327.775 106.354 327.775 125.839V131.004H232.285ZM315.682 120.422C315.178 105.557 311.608 94.0088 304.974 85.7783C298.339 77.5479 289.185 73.4326 277.511 73.4326C265.417 73.4326 255.381 77.5059 247.402 85.6523C239.508 93.7148 234.637 105.305 232.789 120.422H315.682ZM447.453 195V119.918C447.453 88.9277 436.283 73.4326 413.943 73.4326C401.514 73.4326 391.31 78.0098 383.331 87.1641C375.353 96.2344 371.363 107.488 371.363 120.926V195H359.773V66H371.363V89.4316H371.867C381.273 71.7109 395.971 62.8506 415.959 62.8506C429.9 62.8506 440.566 67.5117 447.957 76.834C455.348 86.0723 459.043 99.2998 459.043 116.517V195H447.453ZM607.191 195H596.357L568.265 97.7461C567.509 95.0586 566.837 91.4473 566.249 86.9121H565.619C565.451 88.8438 564.611 92.3711 563.1 97.4941L531.605 195H520.771L481.845 66H494.694L524.677 168.923C525.433 171.61 526.021 175.222 526.44 179.757H527.448C527.616 177.321 528.414 173.71 529.842 168.923L562.596 66H570.532L599.759 168.923C600.431 171.358 601.019 174.97 601.522 179.757H602.53C602.53 177.321 603.244 173.71 604.672 168.923L635.284 66H647.252L607.191 195ZM724.224 198.149C705.411 198.149 690.504 191.977 679.502 179.631C668.584 167.201 663.125 151.076 663.125 131.256C663.125 109.84 668.836 93.085 680.258 80.9912C691.764 68.8975 706.881 62.8506 725.609 62.8506C744.002 62.8506 758.531 68.8555 769.197 80.8652C779.863 92.875 785.196 109.504 785.196 130.752C785.196 150.824 779.737 167.075 768.819 179.505C757.985 191.935 743.12 198.149 724.224 198.149ZM725.105 73.4326C709.904 73.4326 697.769 78.5557 688.698 88.8018C679.712 99.0479 675.219 113.283 675.219 131.508C675.219 148.389 679.628 161.952 688.446 172.198C697.265 182.444 709.316 187.567 724.602 187.567C740.139 187.567 752.106 182.528 760.505 172.45C768.903 162.372 773.103 148.389 773.103 130.5C773.103 112.107 768.903 97.998 760.505 88.1719C752.19 78.3457 740.391 73.4326 725.105 73.4326ZM878.167 78.0938C874.304 75.3223 869.769 73.9365 864.562 73.9365C854.399 73.9365 845.875 79.1855 838.988 89.6836C832.102 100.182 828.658 115.089 828.658 134.405V195H817.32V66H828.658V94.5967H829.162C832.102 84.7705 836.763 77.1279 843.146 71.6689C849.528 66.21 856.919 63.4805 865.317 63.4805C870.104 63.4805 874.388 64.2363 878.167 65.748V78.0938ZM976.303 195L914.574 131.256H914.07V195H902.48V4.01953H914.07V127.099H914.574L973.153 66H988.145L926.92 128.484L993.058 195H976.303Z" fill="white"/>
<path fill-rule="evenodd" clip-rule="evenodd" d="M185.689 58.1243C187.875 61.0967 189 64.2826 189 67.5H181.989C181.877 65.044 180.939 62.6188 179.222 60.3463C177.387 57.9198 174.699 55.715 171.309 53.8579C167.92 52.0007 163.896 50.5275 159.468 49.5224C155.04 48.5173 150.293 48 145.5 48C140.707 48 135.96 48.5173 131.532 49.5224C127.104 50.5275 123.08 52.0007 119.691 53.8579C116.301 55.715 113.613 57.9198 111.778 60.3463C110.061 62.6188 109.123 65.044 109.011 67.5H102C102 64.2826 103.125 61.0967 105.311 58.1243C107.497 55.1518 110.702 52.4509 114.741 50.1759C118.78 47.9008 123.576 46.0962 128.853 44.865C134.131 43.6337 139.787 43 145.5 43C151.213 43 156.869 43.6337 162.147 44.865C167.424 46.0962 172.22 47.9008 176.259 50.1759C180.298 52.4509 183.503 55.1518 185.689 58.1243Z" fill="white"/>
<path fill-rule="evenodd" clip-rule="evenodd" d="M315.689 58.1243C317.875 61.0967 319 64.2826 319 67.5H311.989C311.877 65.044 310.939 62.6188 309.222 60.3463C307.387 57.9198 304.699 55.715 301.309 53.8579C297.92 52.0007 293.896 50.5275 289.468 49.5224C285.04 48.5173 280.293 48 275.5 48C270.707 48 265.96 48.5173 261.532 49.5224C257.104 50.5275 253.08 52.0007 249.691 53.8579C246.301 55.715 243.613 57.9198 241.778 60.3463C240.061 62.6188 239.123 65.044 239.011 67.5H232C232 64.2826 233.125 61.0967 235.311 58.1243C237.497 55.1518 240.702 52.4509 244.741 50.1759C248.78 47.9008 253.576 46.0962 258.853 44.865C264.131 43.6337 269.787 43 275.5 43C281.213 43 286.869 43.6337 292.147 44.865C297.424 46.0962 302.22 47.9008 306.259 50.1759C310.298 52.4509 313.503 55.1518 315.689 58.1243Z" fill="white"/>
</g>
<defs>
<clipPath id="clip0_19_2">
<rect width="997" height="200" fill="white"/>
</clipPath>
</defs>
</svg>
