<svg width="100" height="100" viewBox="0 0 100 100" fill="none" xmlns="http://www.w3.org/2000/svg">
<g clip-path="url(#clip0_8_33)">
<path d="M10 55H39V89C39 92.3137 36.3137 95 33 95H16C12.6863 95 10 92.3137 10 89V55Z" fill="#142D55"/>
<path d="M61 55H90V89C90 92.3137 87.3137 95 84 95H67C63.6863 95 61 92.3137 61 89V55Z" fill="#142D55"/>
<path fill-rule="evenodd" clip-rule="evenodd" d="M90 51H10V69H38.8L39 68.5L39.1006 68.2736C39.6854 66.958 40.6692 65.8598 41.9127 65.1343C42.6316 64.7149 43.4208 64.4299 44.2417 64.2931L45.0675 64.1554C45.6881 64.052 46.3162 64 46.9454 64H55.1664C55.7185 64 56.267 64.089 56.7908 64.2636C57.2611 64.4204 57.7063 64.6444 58.1124 64.9287L58.3596 65.1017C59.4329 65.8531 60.2812 66.8827 60.8133 68.08L61 68.5L61.1846 69H90V51Z" fill="#142D55"/>
<path d="M46.8775 5.00898C48.6204 3.32944 51.3796 3.32944 53.1225 5.00897L96.9676 47.2597C99.8834 50.0695 97.8944 55 93.845 55H6.15496C2.10559 55 0.11658 50.0695 3.03244 47.2597L46.8775 5.00898Z" fill="#142D55"/>
</g>
<defs>
<clipPath id="clip0_8_33">
<rect width="100" height="100" fill="white"/>
</clipPath>
</defs>
</svg>
