<svg width="100" height="100" viewBox="0 0 100 100" fill="none" xmlns="http://www.w3.org/2000/svg">
<g clip-path="url(#clip0_6_16)">
<mask id="mask0_6_16" style="mask-type:alpha" maskUnits="userSpaceOnUse" x="3" y="20" width="95" height="60">
<path d="M95.7899 80C96.8945 80 97.7927 79.1044 97.7636 78.0002C97.574 70.803 96.3623 63.7021 94.1822 57.039C91.8004 49.7595 88.3093 43.1451 83.9083 37.5736C79.5072 32.0021 74.2824 27.5825 68.5322 24.5672C62.782 21.5519 56.619 20 50.395 20C44.171 20 38.0079 21.5519 32.2577 24.5672C26.5075 27.5825 21.2827 32.0021 16.8817 37.5736C12.4806 43.1451 8.98954 49.7595 6.60773 57.039C4.42761 63.7021 3.21592 70.803 3.02633 78.0002C2.99725 79.1044 3.89543 80 5 80L50.395 80H95.7899Z" fill="#142D55"/>
</mask>
<g mask="url(#mask0_6_16)">
<path d="M95.7899 80C96.8945 80 97.7927 79.1044 97.7636 78.0002C97.574 70.803 96.3623 63.7021 94.1822 57.039C91.8004 49.7595 88.3093 43.1451 83.9083 37.5736C79.5072 32.0021 74.2824 27.5825 68.5322 24.5672C62.782 21.5519 56.6189 20 50.395 20C44.171 20 38.0079 21.5519 32.2577 24.5672C26.5075 27.5825 21.2827 32.0021 16.8817 37.5736C12.4806 43.1451 8.98954 49.7595 6.60772 57.039C4.42761 63.7021 3.21592 70.803 3.02633 78.0002C2.99725 79.1044 3.89543 80 5 80L50.395 80H95.7899Z" fill="#142D55"/>
<path d="M8 50C11.5422 55.707 88.3566 54.9461 92 50" stroke="white" stroke-width="2"/>
<path d="M8 36C11.5 42 87.4 41.2 91 36" stroke="white" stroke-width="2"/>
<path d="M8 22C11.5 28 87.4 27.2 91 22" stroke="white" stroke-width="2"/>
<path d="M4 64C7.87952 69.707 92.0096 68.9461 96 64" stroke="white" stroke-width="2"/>
<path d="M60 79H40V65C40 60.0294 44.0294 56 49 56H51C55.9706 56 60 60.0294 60 65V79Z" fill="white" stroke="#142D55" stroke-width="2"/>
<path d="M28.5608 40.1555C27.384 42.1329 24.9121 47.4391 24.4392 52.8445" stroke="white" stroke-width="2"/>
<path d="M40.5987 25.4312C39.219 27.6254 36.2021 33.5578 35.1723 39.7334" stroke="white" stroke-width="2"/>
<path d="M57 25.5209C58.4001 27.7023 61.472 33.6064 62.5591 39.7721" stroke="white" stroke-width="2"/>
<path d="M69.4392 40.1555C70.616 42.1329 73.0879 47.4391 73.5608 52.8445" stroke="white" stroke-width="2"/>
<path d="M14 52C12.6667 54.2319 10 60.1565 10 66" stroke="white" stroke-width="2"/>
<path d="M84 52C85.3333 54.2319 88 60.1565 88 66" stroke="white" stroke-width="2"/>
<path d="M80.6259 66.7295C81.423 69.2041 82.6886 75.5768 81.3741 81.2705" stroke="white" stroke-width="2"/>
<path d="M23.4994 67.8291C22.9912 70.0734 22.28 75.8838 23.5006 81.1708" stroke="white" stroke-width="2"/>
<rect x="49" y="41" width="2" height="13" fill="white"/>
<rect x="41" y="78" width="18" height="2" fill="white"/>
</g>
</g>
<defs>
<clipPath id="clip0_6_16">
<rect width="100" height="100" fill="white"/>
</clipPath>
</defs>
</svg>
