<svg width="100" height="100" viewBox="0 0 100 100" fill="none" xmlns="http://www.w3.org/2000/svg">
<path fill-rule="evenodd" clip-rule="evenodd" d="M87.4118 15.6763C98.6755 26.8417 98.7098 44.9338 87.4886 56.1412L50.6298 92.9544L50.5888 92.9128L50.5031 93L13.3157 56.0544C2.09564 44.9073 2.09567 26.8342 13.3157 15.6871C23.3691 5.69908 39.0132 4.6638 50.2257 12.5634C61.5222 4.59817 77.2888 5.64161 87.4118 15.6763ZM90.6215 12.542C102.865 24.882 102.902 44.8774 90.705 57.2637L50.6411 97.9495L50.5965 97.9036L50.5034 98L10.0823 57.1678C-2.11341 44.848 -2.11341 24.8737 10.0823 12.554C21.0099 1.51527 38.0143 0.371082 50.2019 9.10168C62.4806 0.29855 79.6183 1.45175 90.6215 12.542Z" fill="#FF0000"/>
</svg>
