<svg width="100" height="100" viewBox="0 0 100 100" fill="none" xmlns="http://www.w3.org/2000/svg">
<g clip-path="url(#clip0_23_110)">
<path fill-rule="evenodd" clip-rule="evenodd" d="M96 59.206C91.5479 81.6756 74.6633 99.0365 51.2693 99.477C23.5 100 -0.115336 75.5 0.936684 49.5542C2.11981 20.3748 25.8847 0.5 51.3847 0C68.1627 0 83.8665 7.18312 92.0369 20.0492L90.5 18L79.079 23.9588C71.3849 15.5866 61.4724 10.1111 48.8927 10.6151C24.6707 10.6151 7.52685 29.5858 7.52685 55.0465C7.52685 79.0338 29.9541 97.4809 54.8734 95.9832C76.8015 94.1528 90.3546 79.7385 94.765 59.6613L95.8132 57.8269C95.8641 57.7379 96 57.774 96 57.8766V59.206Z" fill="#666666"/>
<path d="M66.439 52H64.7042V37.75H66.439V43.1494C66.7977 42.7227 67.2245 42.3887 67.7193 42.1475C68.2203 41.9001 68.7769 41.7764 69.3892 41.7764C70.3788 41.7764 71.1612 42.0578 71.7364 42.6206C72.3178 43.1772 72.6085 44.1112 72.6085 45.4224V52H70.8736V45.4038C70.8736 44.6121 70.7035 44.0493 70.3633 43.7153C70.0232 43.3813 69.5284 43.2144 68.879 43.2144C68.3285 43.2144 67.843 43.3628 67.4224 43.6597C67.008 43.9565 66.6802 44.3431 66.439 44.8193V52Z" fill="#666666"/>
<path fill-rule="evenodd" clip-rule="evenodd" d="M25.5079 67.5C25.5079 67.7761 25.7317 68 26.0079 68H42.7276C43.0037 68 43.2276 67.7761 43.2276 67.5V65.7168C43.2276 65.4407 43.0037 65.2168 42.7276 65.2168H30.8201C30.3849 65.2168 30.1575 64.6994 30.4517 64.3787L36.919 57.3311C38.3044 55.8219 39.4919 54.2633 40.4815 52.6553C41.4835 51.0348 41.9844 49.4268 41.9844 47.8311C41.9844 45.6663 41.2608 43.9222 39.8135 42.5986C38.3786 41.2751 36.3871 40.6133 33.8389 40.6133C31.9092 40.6133 30.2826 40.9906 28.959 41.7451C27.6478 42.4873 26.6583 43.4893 25.9903 44.751C25.3962 45.8732 25.0663 47.0982 25.0006 48.4259C24.9869 48.7017 25.2122 48.9258 25.4883 48.9258H27.9581C28.2342 48.9258 28.4563 48.7015 28.4725 48.4259C28.555 47.0311 28.9893 45.8741 29.7755 44.9551C30.6661 43.916 32.0206 43.3965 33.8389 43.3965C35.3357 43.3965 36.4861 43.8727 37.2901 44.8252C38.1065 45.7653 38.5147 46.9033 38.5147 48.2393C38.5147 48.9443 38.3972 49.637 38.1622 50.3174C37.9271 50.9977 37.5066 51.7646 36.9005 52.6182C36.3067 53.4593 35.4594 54.486 34.3585 55.6982L25.6359 65.4082C25.5535 65.5 25.5079 65.619 25.5079 65.7424V67.5ZM57.9229 67.5C57.9229 67.7761 58.1468 68 58.4229 68H60.8926C61.1688 68 61.3926 67.7761 61.3926 67.5V62.21C61.3926 61.9338 61.6165 61.71 61.8926 61.71H64.6407C64.9168 61.71 65.1407 61.4861 65.1407 61.21V59.4268C65.1407 59.1506 64.9168 58.9268 64.6407 58.9268H61.8926C61.6165 58.9268 61.3926 58.7029 61.3926 58.4268V50.5C61.3926 50.2239 61.1688 50 60.8926 50H58.4229C58.1468 50 57.9229 50.2239 57.9229 50.5V58.4268C57.9229 58.7029 57.6991 58.9268 57.4229 58.9268H50.4468C50.0523 58.9268 49.8132 58.4913 50.0249 58.1584L57.5147 46.3838L57.8532 45.7683C57.8938 45.6945 57.9151 45.6116 57.9151 45.5274V41.1234C57.9151 41.0466 57.8528 40.9844 57.776 40.9844C57.7288 40.9844 57.6848 41.0084 57.6592 41.048L45.701 59.5823C45.6489 59.6631 45.6212 59.7572 45.6212 59.8534V61.21C45.6212 61.4861 45.845 61.71 46.1212 61.71H57.4229C57.6991 61.71 57.9229 61.9338 57.9229 62.21V67.5Z" fill="#666666"/>
<path d="M57.7277 41L60.7278 41L57.7277 46L57.7277 41Z" fill="#666666"/>
<rect x="49" y="17" width="2" height="6" rx="1" fill="#666666"/>
<rect x="49" y="86" width="2" height="6" rx="1" fill="#666666"/>
<rect x="80" y="54" width="2" height="6" rx="1" transform="rotate(-90 80 54)" fill="#666666"/>
<rect x="13" y="54" width="2" height="6" rx="1" transform="rotate(-90 13 54)" fill="#666666"/>
<rect x="17.0119" y="33.965" width="2" height="4" rx="1" transform="rotate(-52.4599 17.0119 33.965)" fill="#666666"/>
<rect x="77" y="71.5859" width="2" height="4" rx="1" transform="rotate(-52.4599 77 71.5859)" fill="#666666"/>
<rect x="65" y="83.1962" width="2" height="4" rx="1" transform="rotate(-36.7348 65 83.1962)" fill="#666666"/>
<rect x="30" y="22.1962" width="2" height="4" rx="1" transform="rotate(-36.7348 30 22.1962)" fill="#666666"/>
<rect x="67.1895" y="21" width="2" height="4" rx="1" transform="rotate(33.187 67.1895 21)" fill="#666666"/>
<rect x="31.1895" y="82" width="2" height="4" rx="1" transform="rotate(33.187 31.1895 82)" fill="#666666"/>
<rect x="79.2325" y="34" width="2" height="4" rx="1" transform="rotate(53.912 79.2325 34)" fill="#666666"/>
<rect x="20.2325" y="70" width="2" height="4" rx="1" transform="rotate(53.912 20.2325 70)" fill="#666666"/>
<path d="M92.1058 14.7857L91.8961 34.1546L75.227 24.2885L92.1058 14.7857Z" fill="#666666"/>
</g>
<defs>
<clipPath id="clip0_23_110">
<rect width="100" height="100" fill="white"/>
</clipPath>
</defs>
</svg>
