<svg width="100" height="100" viewBox="0 0 100 100" fill="none" xmlns="http://www.w3.org/2000/svg">
<g clip-path="url(#clip0_23_67)">
<g filter="url(#filter0_d_23_67)">
<path fill-rule="evenodd" clip-rule="evenodd" d="M13.8421 47.5283L15.1189 47.1026C15.3229 47.0347 15.5364 47 15.7514 47H16.5244H18.7195H19.041C19.5379 47 20.0145 47.1974 20.3659 47.5488C20.7172 47.9002 21.1938 48.0976 21.6907 48.0976H22.561H23.8959C24.0953 48.0976 24.2865 48.0183 24.4275 47.8774C24.6289 47.676 24.9268 47.6057 25.1969 47.6957L26.4024 48.0976L27.7409 48.5437C27.9448 48.6117 28.1584 48.6463 28.3733 48.6463H29.3071C29.5555 48.6463 29.7938 48.745 29.9695 48.9207C30.1452 49.0964 30.3835 49.1951 30.6319 49.1951H30.7927C31.1441 49.1951 31.4743 49.0421 31.7764 48.8626C31.9769 48.7434 32.2128 48.6463 32.439 48.6463H32.7082C33.1471 48.6463 33.5593 48.8228 33.9668 48.9972C34.0517 49.0336 34.1364 49.0698 34.2212 49.1044C34.3557 49.1593 34.4967 49.1951 34.6341 49.1951C35.0732 49.1951 35.5488 48.8293 35.7317 48.6463L35.7861 48.5919C36.1027 48.2754 36.532 48.0976 36.9796 48.0976C37.2416 48.0976 37.5001 48.0366 37.7344 47.9194L38.1853 47.6939C38.3776 47.5978 38.5531 47.4713 38.7051 47.3193L39.3437 46.6807C39.4957 46.5287 39.6222 46.3532 39.7183 46.1609L39.7515 46.0946C39.9887 45.6202 40.4046 45.2594 40.9079 45.0917L41.5142 44.8896C41.6828 44.8334 41.8432 44.7549 41.9911 44.6563L43.4146 43.7073L45.3195 42.7549C45.5117 42.6588 45.6872 42.5323 45.8392 42.3803L47.2561 40.9634L48.3537 39.8659C48.5366 39.6829 48.9024 39.2073 48.9024 38.7683C48.9024 38.3293 49.2683 37.4878 49.4512 37.122L50.3376 35.3491C50.4765 35.0714 50.5488 34.7652 50.5488 34.4547V33.8293V32.1063C50.5488 31.7958 50.4765 31.4896 50.3376 31.2119L50.0636 30.6637C50.0212 30.5791 49.985 30.4915 49.955 30.4017L49.5538 29.1981C49.4859 28.9942 49.4512 28.7807 49.4512 28.5657V28.0723C49.4512 27.5419 49.6619 27.0332 50.037 26.6581L50.3683 26.3268C50.4878 26.2073 50.5873 26.0693 50.6629 25.9181C50.8764 25.4912 51.2925 25.1901 51.6925 24.9006C51.7917 24.8289 51.8899 24.7578 51.9837 24.6857C52.0542 24.6316 52.1251 24.57 52.1951 24.5C52.6341 24.061 52.7439 23.2195 52.7439 22.8537V21.4535C52.7439 21.29 52.7238 21.1271 52.6842 20.9685L52.3746 19.73C52.2588 19.2668 52.3125 18.7775 52.526 18.3505L52.6462 18.11C52.7109 17.9806 52.7961 17.8625 52.8984 17.7602C53.1508 17.5077 53.2927 17.1653 53.2927 16.8082V16.6667C53.2927 16.4047 53.2317 16.1463 53.1145 15.9119L52.955 15.593C52.888 15.4589 52.8365 15.3182 52.8011 15.1736C52.9647 15.1717 53.1286 15.1707 53.2927 15.1707C76.327 15.1707 95 33.8437 95 56.878C95 79.9124 76.327 98.5854 53.2927 98.5854C30.2584 98.5854 11.5854 79.9124 11.5854 56.878C11.5854 53.6197 11.959 50.4486 12.6658 47.4053C12.9321 47.6721 13.3535 47.7623 13.7224 47.5778C13.7611 47.5585 13.8011 47.5419 13.8421 47.5283Z" fill="url(#paint0_radial_23_67)"/>
</g>
<g filter="url(#filter1_d_23_67)">
<path d="M74.7364 70.0488C74.2911 70.4783 73.6678 71.5949 74.7364 72.6257C75.805 73.6564 76.6658 74.2004 76.9626 74.3436L77.3682 74.5392C78.2541 74.9665 78.9518 75.7046 79.3286 76.6131V76.6131C79.5303 77.0996 79.6341 77.621 79.6341 78.1477V79.0679V79.9268" stroke="#CC771A" stroke-opacity="0.6" stroke-width="0.7"/>
<path d="M62.7861 68.1608C62.3023 68.0619 61.1349 68.0828 60.3356 68.958C59.5364 69.8331 59.1648 70.4495 59.079 70.6483V70.6483C58.744 71.4238 58.1733 72.074 57.4478 72.5067L57.1594 72.6787C56.8358 72.8716 56.4917 73.0278 56.1334 73.1444L55.0388 73.5005L54.222 73.7662" stroke="#CC771A" stroke-opacity="0.6" stroke-width="0.7"/>
<path d="M62.0732 38.2195C62.0732 37.6969 62.3201 36.4948 63.3079 35.8676C63.9533 35.4578 65.1024 35.472 66.0893 35.6039C66.9662 35.7211 67.8692 35.6979 68.6959 35.383V35.383C69.2146 35.1854 69.6887 34.8865 70.0906 34.5037L71.9512 32.7317" stroke="#CC771A" stroke-opacity="0.6" stroke-width="0.7"/>
<path d="M40.6707 77.7317C39.7881 78.6502 39.3491 79.8765 39.1555 80.8434C39.0029 81.6057 39.1992 82.3787 39.5359 83.0794V83.0794C40.2495 84.5646 41.6265 85.6222 43.2455 85.9286L45.1982 86.298L47.0394 86.8455C47.7136 87.0459 48.3023 87.4642 48.7136 88.0348V88.0348C49.104 88.5765 49.314 89.2272 49.314 89.8949V90.5812V91.2092C49.314 92.1804 49.6898 93.1139 50.3628 93.8141V93.8141C50.4866 93.943 50.6195 94.0629 50.7604 94.1729L52.1951 95.2927" stroke="#CC771A" stroke-opacity="0.6" stroke-width="0.7"/>
<path d="M80.0383 35.1293C81.1822 35.5621 82.3257 36.5376 83.036 37.2581C83.3745 37.6014 83.628 38.0156 83.8268 38.4549L83.9968 38.8306C84.6198 40.2076 84.5025 41.8212 83.701 43.1026V43.1026C83.5827 43.2917 83.4781 43.4921 83.391 43.6974L83.2531 44.0225C82.9509 44.7348 82.9106 45.5309 83.1394 46.27V46.27C83.2683 46.6864 83.479 47.0729 83.7592 47.4068L84.436 48.2133L84.8658 48.7254C85.4867 49.4652 85.9071 50.3521 86.087 51.301V51.301L86.1773 52.9027" stroke="#CC771A" stroke-opacity="0.6" stroke-width="0.7"/>
<path d="M61.2611 45.9025C60.7197 46.4878 59.691 47.8342 59.9075 48.5366C60.099 49.1577 60.7279 49.8245 61.1205 50.173C61.2126 50.2547 61.303 50.3381 61.3867 50.4285L61.626 50.6873C61.9135 50.9981 62.0732 51.4059 62.0732 51.8293V51.8293C62.0732 52.2527 61.9135 52.6605 61.626 52.9713L61.2611 53.3659L60.9216 53.7328C60.6177 54.0614 60.449 54.4925 60.449 54.9401V54.9401C60.449 55.5931 60.8069 56.1935 61.3814 56.5041L62.0732 56.8781" stroke="#CC771A" stroke-opacity="0.6" stroke-width="0.7"/>
<path d="M86.2195 57.9756C88.1457 59.7317 91.255 63.9463 88.2832 66.7561" stroke="#CC771A" stroke-opacity="0.6" stroke-width="0.7"/>
<path d="M44.5122 47.1409C43.9493 46.8631 42.4859 46.8076 41.1351 48.8078C40.2186 50.1649 39.898 51.2151 39.8305 51.8802C39.7848 52.331 40.0084 52.7422 40.2825 53.1029L40.6851 53.6329C40.977 54.0171 41.1351 54.4864 41.1351 54.9689V54.9689C41.1351 55.5596 40.8985 56.1256 40.4781 56.5405L39.0244 57.9756" stroke="#CC771A" stroke-opacity="0.6" stroke-width="0.7"/>
<path d="M26.8978 57.4435C26.9471 56.8177 26.456 55.4381 24.0974 54.9253C22.4972 54.5774 21.403 54.6691 20.7603 54.8532C20.3247 54.9778 20.0257 55.338 19.7924 55.7263L19.4495 56.2968C19.2009 56.7104 18.8237 57.0312 18.3756 57.2101V57.2101C17.8271 57.4291 17.2137 57.4193 16.6724 57.1828L14.8006 56.3649" stroke="#CC771A" stroke-opacity="0.6" stroke-width="0.7"/>
<path d="M35.9676 17.4206C35.7947 17.6079 35.5587 18.0891 35.9982 18.5148C36.4377 18.9405 36.7883 19.1619 36.9086 19.2194L37.0403 19.2822C37.4208 19.4639 37.7216 19.7786 37.8859 20.1669V20.1669C37.9695 20.3646 38.0155 20.5762 38.0215 20.7907L38.0328 21.1955L38.043 21.5602" stroke="#CC771A" stroke-opacity="0.6" stroke-width="0.3"/>
<path d="M43.3776 12.0128C43.2337 11.9521 42.9841 11.9162 43.1368 12.2585C43.2895 12.6008 43.4393 12.8493 43.4951 12.9307L43.7334 13.2785C43.7963 13.3704 43.8308 13.4787 43.8327 13.59L43.8328 13.5981C43.8353 13.7449 43.7789 13.8865 43.6762 13.9913V13.9913L43.5959 14.0732" stroke="#CC771A" stroke-opacity="0.6" stroke-width="0.3"/>
<path d="M19.2683 17.9146H19.8171L20.3658 17.3659L20.9146 17.9146V18.4634L20.3658 19.0122L19.2683 18.4634V17.9146Z" fill="#E3B168"/>
<path d="M34.0854 12.9756L33.5366 12.4268L34.0854 11.8781H34.6341V12.4268V12.9756H34.0854Z" fill="#E3B168"/>
</g>
<path d="M25.1665 66.0155L26.5102 65.7467C26.8006 65.6887 27.1002 65.6958 27.3875 65.7676L30.918 66.6502C31.197 66.72 31.4577 66.8491 31.6823 67.0288L33.2114 68.252C33.7544 68.6865 34.0328 69.3718 33.9465 70.0618L33.5557 73.1884C33.543 73.2903 33.5224 73.3911 33.4942 73.4898L32.6807 76.337C32.5267 76.876 32.1535 77.3257 31.6521 77.5764L30.371 78.2169C30.2864 78.2592 30.1988 78.2955 30.1091 78.3254L27.6462 79.1464C27.1975 79.296 26.7102 79.2816 26.271 79.106L25.2132 78.6829C24.5857 78.4318 24.1274 77.8809 23.9948 77.2181L23.6585 75.5366L22.6636 72.5518C22.5956 72.3479 22.561 72.1343 22.561 71.9193V69.9721C22.561 69.6616 22.6333 69.3554 22.7721 69.0777L23.7699 67.0822C24.0459 66.5302 24.5613 66.1365 25.1665 66.0155Z" fill="#663722" stroke="black" stroke-width="0.2"/>
<path d="M53.4341 87.1686L53.8076 84.5544C53.8301 84.3967 53.8714 84.2423 53.9305 84.0945L54.521 82.6181C54.7806 81.9693 55.3599 81.503 56.0492 81.3881L58.0684 81.0516C58.1771 81.0335 58.2871 81.0244 58.3972 81.0244H59.8133C60.1893 81.0244 60.5331 80.8119 60.7012 80.4756C60.8694 80.1393 61.2131 79.9268 61.5892 79.9268H62.6491C63.3178 79.9268 63.9423 80.261 64.3132 80.8174L64.6249 81.2849C64.7521 81.4757 64.8455 81.6868 64.9011 81.9092L65.7352 85.2456C65.851 85.7088 65.7973 86.1981 65.5838 86.6251L64.8171 88.1585L63.7195 90.9024L63.0017 92.6968C62.7632 93.2931 62.2529 93.7386 61.6299 93.8944L60.8631 94.086C60.5758 94.1579 60.2762 94.165 59.9858 94.1069L58.5505 93.8198C57.9979 93.7093 57.5176 93.3709 57.2277 92.8877L56.1633 91.1136C56.0791 90.9733 55.9781 90.844 55.8625 90.7283L53.9998 88.8656C53.5547 88.4205 53.3451 87.7918 53.4341 87.1686Z" fill="#663722" stroke="black" stroke-width="0.2"/>
<path d="M54.51 24.8061L54.7537 24.3242C54.9745 23.8875 55.3478 23.5469 55.8029 23.367L56.5559 23.0692C56.9028 22.9319 57.2916 22.948 57.626 23.1133C57.8078 23.2032 58.008 23.25 58.2108 23.25H58.7183C58.9694 23.25 59.2182 23.2973 59.4518 23.3893L60.3106 23.7279C60.8205 23.9289 61.2256 24.3304 61.4312 24.8385L61.7649 25.6636C61.8614 25.9019 61.9109 26.1565 61.9109 26.4136V27.0504C61.9109 27.4163 61.8105 27.7752 61.6207 28.0879L60.7084 29.5915L59.8887 30.9422C59.6416 31.3494 59.2573 31.6551 58.8049 31.8042L57.6818 32.1743C57.3031 32.2992 56.8957 32.3079 56.512 32.1995L55.4694 31.905C54.7482 31.7012 54.2014 31.1114 54.0528 30.3768L53.9626 29.9311C53.9172 29.7063 53.9107 29.4755 53.9435 29.2485L54.2742 26.9593C54.2879 26.8646 54.2948 26.769 54.2948 26.6733V25.7086C54.2948 25.3951 54.3685 25.0859 54.51 24.8061Z" fill="#663722"/>
<path d="M70.0829 44.8596L70.9383 44.6904C71.0661 44.6652 71.196 44.6524 71.3263 44.6524H73.469C73.7764 44.6524 74.0797 44.7233 74.3553 44.8596L75.2278 45.2909C75.9098 45.6281 76.3415 46.323 76.3415 47.0838V48.2195C76.3415 48.4858 76.153 49.8887 76.0135 50.8791C75.9662 51.2146 75.8332 51.5318 75.6285 51.8017L74.9107 52.748C74.7962 52.899 74.6608 53.0329 74.5086 53.1458L73.8152 53.66C73.3802 53.9825 72.833 54.1149 72.2987 54.0269L70.8911 53.7949C70.7836 53.7772 70.6748 53.7683 70.5659 53.7683H70.4746C69.6596 53.7683 68.9261 53.2738 68.6205 52.5183L68.3245 51.7866L67.695 50.5417C67.5818 50.3179 67.5228 50.0705 67.5228 49.8196V48.6204C67.5228 48.399 67.7023 48.2195 67.9236 48.2195C68.145 48.2195 68.3245 48.04 68.3245 47.8187V46.9394C68.3245 46.7387 68.3717 46.5408 68.4622 46.3617L68.6861 45.9191C68.9639 45.3698 69.4791 44.979 70.0829 44.8596Z" fill="#663722"/>
<path d="M46.6787 62.0915L45.4034 60.2001C44.7813 59.2775 45.0319 58.0245 45.961 57.4121L46.3916 57.1282C46.5816 57.003 46.7915 56.9111 47.0124 56.8565L47.8504 56.6494C48.1347 56.5791 48.431 56.5721 48.7183 56.6289L50.0259 56.8875C50.1988 56.9217 50.3663 56.9786 50.5243 57.0567L53.4931 58.5244L55.4491 59.4914C55.7366 59.6335 55.9558 59.8842 56.0582 60.1881C56.2056 60.6252 56.091 61.1081 55.763 61.4325L55.0965 62.0915L54.5264 62.6551C54.373 62.8068 54.2453 62.9821 54.1479 63.1746L53.4931 64.4695C53.2138 65.0219 52.306 65.4139 51.7232 65.5931C51.5686 65.6406 51.4071 65.6585 51.2453 65.6585H49.8658C49.6139 65.6585 49.3644 65.611 49.1302 65.5184L48.2989 65.1896C47.8049 64.9942 47.4804 64.5168 47.4804 63.9856C47.4804 63.7826 47.4326 63.5824 47.341 63.4013L46.6787 62.0915Z" fill="#663722"/>
<path d="M30.8514 53.9644L30.9111 53.9447C31.2397 53.8364 31.6013 53.9214 31.8473 54.1646L32.0789 54.3936C32.3927 54.7039 32.3927 55.2107 32.0789 55.521C31.9305 55.6677 31.7303 55.75 31.5216 55.75H31.2901C31.1293 55.75 30.9706 55.7129 30.8264 55.6416L30.7363 55.5971C30.4348 55.448 30.2439 55.1407 30.2439 54.8043C30.2439 54.4226 30.4889 54.0839 30.8514 53.9644Z" fill="#663722"/>
<path d="M70.5672 59.9191L71.1167 60.0278C71.3893 60.0817 71.6454 60.1988 71.8643 60.3699C72.2947 60.706 72.5463 61.2216 72.5463 61.7677V62.0008C72.5463 62.5583 72.2895 63.0847 71.8501 63.4278L71.6601 63.5762C71.5753 63.6425 71.5061 63.7266 71.4575 63.8226C71.2764 64.1808 70.8405 64.3261 70.4806 64.1483L69.527 63.6768L68.4247 62.9502C68.3581 62.9063 68.2959 62.8559 68.2391 62.7997C67.8237 62.3889 67.7593 61.7406 68.086 61.2562L68.2388 61.0296C68.2958 60.945 68.361 60.8663 68.4335 60.7946L68.773 60.4589C69.2446 59.9927 69.9167 59.7905 70.5672 59.9191Z" fill="#663722"/>
<path d="M68.7998 28.6445L68.6558 28.7513C68.0823 29.1766 67.2616 28.9458 66.9938 28.2839C66.8287 27.8756 66.925 27.4081 67.2382 27.0984L67.6542 26.6871C67.8314 26.512 67.9651 26.2978 68.0447 26.0617C68.219 25.5447 68.6451 25.1524 69.1748 25.0215L69.7161 24.8877C69.8563 24.8531 69.9895 24.7948 70.11 24.7153C70.6797 24.3398 71.4443 24.482 71.8409 25.0371L72.5463 26.0244L73.4499 27.5702C73.7315 28.052 73.6279 28.6663 73.2038 29.029C72.8142 29.3623 72.2513 29.3984 71.8223 29.1176L71.2285 28.729C70.903 28.5159 70.5223 28.4024 70.1333 28.4024H69.5326C69.2687 28.4024 69.0118 28.4873 68.7998 28.6445Z" fill="#663722"/>
<path d="M54.51 24.8061L54.7537 24.3242C54.9745 23.8875 55.3478 23.5469 55.8029 23.367L56.5559 23.0692C56.9028 22.9319 57.2916 22.948 57.626 23.1133C57.8078 23.2032 58.008 23.25 58.2108 23.25H58.7183C58.9694 23.25 59.2182 23.2973 59.4518 23.3893L60.3106 23.7279C60.8205 23.9289 61.2256 24.3304 61.4312 24.8385L61.7649 25.6636C61.8614 25.9019 61.9109 26.1565 61.9109 26.4136V27.0504C61.9109 27.4163 61.8105 27.7752 61.6207 28.0879L60.7084 29.5915L59.8887 30.9422C59.6416 31.3494 59.2573 31.6551 58.8049 31.8042L57.6818 32.1743C57.3031 32.2992 56.8957 32.3079 56.512 32.1995L55.4694 31.905C54.7482 31.7012 54.2014 31.1114 54.0528 30.3768L53.9626 29.9311C53.9172 29.7063 53.9107 29.4755 53.9435 29.2485L54.2742 26.9593C54.2879 26.8646 54.2948 26.769 54.2948 26.6733V25.7086C54.2948 25.3951 54.3685 25.0859 54.51 24.8061Z" stroke="black" stroke-width="0.2"/>
<path d="M70.0829 44.8596L70.9383 44.6904C71.0661 44.6652 71.196 44.6524 71.3263 44.6524H73.469C73.7764 44.6524 74.0797 44.7233 74.3553 44.8596L75.2278 45.2909C75.9098 45.6281 76.3415 46.323 76.3415 47.0838V48.2195C76.3415 48.4858 76.153 49.8887 76.0135 50.8791C75.9662 51.2146 75.8332 51.5318 75.6285 51.8017L74.9107 52.748C74.7962 52.899 74.6608 53.0329 74.5086 53.1458L73.8152 53.66C73.3802 53.9825 72.833 54.1149 72.2987 54.0269L70.8911 53.7949C70.7836 53.7772 70.6748 53.7683 70.5659 53.7683H70.4746C69.6596 53.7683 68.9261 53.2738 68.6205 52.5183L68.3245 51.7866L67.695 50.5417C67.5818 50.3179 67.5228 50.0705 67.5228 49.8196V48.6204C67.5228 48.399 67.7023 48.2195 67.9236 48.2195C68.145 48.2195 68.3245 48.04 68.3245 47.8187V46.9394C68.3245 46.7387 68.3717 46.5408 68.4622 46.3617L68.6861 45.9191C68.9639 45.3698 69.4791 44.979 70.0829 44.8596Z" stroke="black" stroke-width="0.2"/>
<path d="M46.6787 62.0915L45.4034 60.2001C44.7813 59.2775 45.0319 58.0245 45.961 57.4121L46.3916 57.1282C46.5816 57.003 46.7915 56.9111 47.0124 56.8565L47.8504 56.6494C48.1347 56.5791 48.431 56.5721 48.7183 56.6289L50.0259 56.8875C50.1988 56.9217 50.3663 56.9786 50.5243 57.0567L53.4931 58.5244L55.4491 59.4914C55.7366 59.6335 55.9558 59.8842 56.0582 60.1881C56.2056 60.6252 56.091 61.1081 55.763 61.4325L55.0965 62.0915L54.5264 62.6551C54.373 62.8068 54.2453 62.9821 54.1479 63.1746L53.4931 64.4695C53.2138 65.0219 52.306 65.4139 51.7232 65.5931C51.5686 65.6406 51.4071 65.6585 51.2453 65.6585H49.8658C49.6139 65.6585 49.3644 65.611 49.1302 65.5184L48.2989 65.1896C47.8049 64.9942 47.4804 64.5168 47.4804 63.9856C47.4804 63.7826 47.4326 63.5824 47.341 63.4013L46.6787 62.0915Z" stroke="black" stroke-width="0.2"/>
<path d="M30.8514 53.9644L30.9111 53.9447C31.2397 53.8364 31.6013 53.9214 31.8473 54.1646L32.0789 54.3936C32.3927 54.7039 32.3927 55.2107 32.0789 55.521C31.9305 55.6677 31.7303 55.75 31.5216 55.75H31.2901C31.1293 55.75 30.9706 55.7129 30.8264 55.6416L30.7363 55.5971C30.4348 55.448 30.2439 55.1407 30.2439 54.8043C30.2439 54.4226 30.4889 54.0839 30.8514 53.9644Z" stroke="black" stroke-width="0.2"/>
<path d="M70.5672 59.9191L71.1167 60.0278C71.3893 60.0817 71.6454 60.1988 71.8643 60.3699C72.2947 60.706 72.5463 61.2216 72.5463 61.7677V62.0008C72.5463 62.5583 72.2895 63.0847 71.8501 63.4278L71.6601 63.5762C71.5753 63.6425 71.5061 63.7266 71.4575 63.8226C71.2764 64.1808 70.8405 64.3261 70.4806 64.1483L69.527 63.6768L68.4247 62.9502C68.3581 62.9063 68.2959 62.8559 68.2391 62.7997C67.8237 62.3889 67.7593 61.7406 68.086 61.2562L68.2388 61.0296C68.2958 60.945 68.361 60.8663 68.4335 60.7946L68.773 60.4589C69.2446 59.9927 69.9167 59.7905 70.5672 59.9191Z" stroke="black" stroke-width="0.2"/>
<path d="M68.7998 28.6445L68.6558 28.7513C68.0823 29.1766 67.2616 28.9458 66.9938 28.2839C66.8287 27.8756 66.925 27.4081 67.2382 27.0984L67.6542 26.6871C67.8314 26.512 67.9651 26.2978 68.0447 26.0617C68.219 25.5447 68.6451 25.1524 69.1748 25.0215L69.7161 24.8877C69.8563 24.8531 69.9895 24.7948 70.11 24.7153C70.6797 24.3398 71.4443 24.482 71.8409 25.0371L72.5463 26.0244L73.4499 27.5702C73.7315 28.052 73.6279 28.6663 73.2038 29.029C72.8142 29.3623 72.2513 29.3984 71.8223 29.1176L71.2285 28.729C70.903 28.5159 70.5223 28.4024 70.1333 28.4024H69.5326C69.2687 28.4024 69.0118 28.4873 68.7998 28.6445Z" stroke="black" stroke-width="0.2"/>
<g filter="url(#filter2_d_23_67)">
<path d="M29.6951 43.7073H30.2439L30.7927 43.1585L31.3415 43.7073V44.2561L30.7927 44.8049L29.6951 44.2561V43.7073Z" fill="url(#paint1_radial_23_67)"/>
<path d="M28.0488 40.4146L27.5 39.8659L28.0488 39.3171H28.5976V39.8659V40.4146H28.0488Z" fill="url(#paint2_radial_23_67)"/>
<path d="M29.1463 23.9512H29.6951L30.2439 23.4025L30.7927 23.9512V24.5L30.2439 25.0488L29.1463 24.5V23.9512Z" fill="url(#paint3_radial_23_67)"/>
<path d="M27.5 20.6585L26.9512 20.1098L27.5 19.561H28.0488V20.1098V20.6585H27.5Z" fill="url(#paint4_radial_23_67)"/>
<path d="M11.5854 14.0732H12.1341L12.6829 13.5244L13.2317 14.0732V14.622L12.6829 15.1707L11.5854 14.622V14.0732Z" fill="url(#paint5_radial_23_67)"/>
<path d="M9.93902 10.7805L9.39024 10.2317L9.93902 9.68294H10.4878V10.2317V10.7805H9.93902Z" fill="url(#paint6_radial_23_67)"/>
<path d="M11.5854 29.439H13.7805H14.878L15.9756 29.9878L17.0732 30.5366L18.1707 31.0854L18.7195 30.5366H19.2683V31.0854V31.6342L20.9146 32.1829H21.4634L22.0122 31.6342L22.561 32.1829L23.1098 32.7317L23.6585 33.4238L24.2073 33.8293V34.3781V35.4756H23.6585L23.1098 36.0244L22.561 36.5732V37.122L22.0122 37.6707L20.9146 38.7683L19.2683 39.3171L18.7195 39.8659H17.0732L15.9756 39.9254H14.878H13.6019H13.0531L12.5043 40.4742C12.5043 40.6571 12.3945 41.023 11.9555 41.023H10.858L9.7604 41.5717L8.66284 41.023L7.56528 40.4742L7.0165 39.9254V39.3766L7.56528 38.8278L7.0165 38.2791L6.46772 37.7303V36.6327V34.9864L5.91894 33.34L6.46772 31.1449L6.77188 30.5366H6.74211L7.0165 30.0474L6.77188 30.5366H7.0165L7.56528 29.9878C7.56528 29.8049 7.67504 29.439 8.11406 29.439H8.66284L9.21162 28.8902H9.7604H10.3092L10.858 29.439L10.4878 28.8902L11.0366 29.439H11.5854Z" fill="url(#paint7_radial_23_67)"/>
<path d="M42.3171 26.6951V25.5975H43.4146H44.5122L45.061 26.1463L45.6098 27.2439V28.3415L46.1585 28.8902H45.061V29.9878V30.5366L44.5122 31.6341L43.9634 31.0854L43.4146 29.9878H42.3171V28.8902V28.3415L42.8659 27.2439L42.3171 26.6951Z" fill="url(#paint8_radial_23_67)"/>
<path d="M32.9878 15.7195L33.5366 16.2683H34.0854H34.6341H35.1829L35.4223 15.4353L36.2805 15.1707L37.378 15.7195L38.4756 16.2683L39.0244 16.8171V17.9146L40.122 18.4634L40.6707 19.0122L41.2195 19.561L40.6707 20.6585V21.2073L41.2195 22.3049V22.8537H40.6707L40.122 22.3049V22.8537V23.9512C40.122 24.3902 39.3902 24.5 39.0244 24.5H38.4756L36.8293 23.9512L36.2805 23.4024L35.4223 22.6336C35.3425 22.707 35.0732 22.8097 34.6341 22.6336C34.1951 22.4576 34.0854 22.3411 34.0854 22.3049L33.5366 21.2073L32.9878 20.6585V20.1098L32.439 19.561V19.0122V17.9146L31.8902 17.3659V16.8171L32.439 16.2683L32.9878 15.7195Z" fill="url(#paint9_radial_23_67)"/>
<path d="M42.8659 9.68294L43.4146 10.2317H43.9634H45.061L45.2566 10.7805L45.6098 11.7517L46.1585 12.4268V12.9756V14.0732L45.6098 14.622H45.061V15.1707L44.5122 15.7195V16.2683H43.9634L43.4146 15.7195L42.8659 15.1707L42.3171 14.622H41.7683V14.0732V12.9756V12.4268V11.3293V10.7805L42.3171 10.2317L42.8659 9.68294Z" fill="url(#paint10_radial_23_67)"/>
<path d="M6.09756 20.1098L6.64634 20.6585L7.7439 21.2073L8.29268 21.7561V22.3049L7.19512 23.4024V23.9512H6.64634H6.09756L5.54878 23.4024L5 22.8537V21.7561V21.2073V20.6585L5.54878 20.1098H6.09756Z" fill="url(#paint11_radial_23_67)"/>
<path d="M13.7805 19.561L14.3293 19.0122V18.4634H15.4268L16.5244 19.0122L17.0732 20.1098V21.2073H15.9756C15.5366 21.2073 15.4268 21.5732 15.4268 21.7561V22.8537L14.3293 23.4024L13.7805 23.9512C13.3415 24.3902 13.2317 23.7683 13.2317 23.4024L12.6829 22.8537L13.2317 22.3049H14.3293V21.7561V21.2073L13.7805 20.6585V20.1098V19.561Z" fill="url(#paint12_radial_23_67)"/>
<path d="M31.3415 29.439H32.9878L33.5366 29.9878L35.1829 30.5366C35 30.7195 34.6341 31.1951 34.6341 31.6341V32.1829H34.0854H32.9878C32.8049 32.3659 32.439 32.8415 32.439 33.2805C32.439 33.7195 31.7073 33.0976 31.3415 32.7317V31.6341C31.3415 31.1951 30.9756 31.0854 30.7927 31.0854L30.2439 30.5366L29.6951 29.9878L30.2439 29.439H31.3415Z" fill="url(#paint13_radial_23_67)"/>
<path d="M27.5 4.19512V3.09756L26.9512 2.54878L27.5 2L29.1463 2.54878L29.6951 3.09756C29.878 3.46341 30.2439 4.30488 30.2439 4.7439V5.29268L29.6951 5.84146L30.2439 6.93902L29.1463 7.4878V8.03659H28.0488H26.9512V8.58537L26.4024 9.13415L25.8537 8.58537V7.4878L25.3049 6.93902L25.8537 6.39024L26.9512 6.93902H27.5L28.0488 6.39024V5.84146L27.5 5.29268L26.9512 4.7439L27.5 4.19512Z" fill="url(#paint14_radial_23_67)"/>
<path d="M34.0854 3.09756H35.7317V3.64635L36.2805 4.74391V5.84147L35.1829 6.39025V6.93903L34.6342 7.48781L33.5366 6.93903V5.84147L34.6342 5.29269L34.0854 4.19513V3.09756Z" fill="url(#paint15_radial_23_67)"/>
<path d="M44.5122 8.03657L45.061 7.48779L45.6098 6.93901L46.1585 7.48779L47.2561 8.03657C46.8902 8.2195 46.1585 8.69511 46.1585 9.13413C46.1585 9.57316 45.4268 9.31706 45.061 9.13413L44.5122 8.58535V8.03657Z" fill="url(#paint16_radial_23_67)"/>
<path d="M46.1585 15.1707C46.5244 15.1707 47.2561 15.2805 47.2561 15.7195H47.8049L48.9024 15.1707L50 15.7195V16.8171C49.6341 16.8171 48.9024 16.9268 48.9024 17.3659C48.9024 17.9146 48.3537 17.9146 48.3537 18.4634C48.3537 19.0122 48.9024 19.561 48.3537 19.561C47.9146 19.561 47.439 19.1951 47.2561 19.0122L46.7073 17.9146L46.1585 16.8171L45.6098 15.7195L46.1585 15.1707Z" fill="url(#paint17_radial_23_67)"/>
<path d="M43.4146 10.2317H43.9634H44.5122L45.6098 11.3293C45.7927 11.6951 46.1585 12.5366 46.1585 12.9756V14.0732L45.061 15.1707C44.8781 15.3537 44.5122 15.8293 44.5122 16.2683C44.5122 16.8171 43.4146 16.2683 43.4146 15.7195C43.4146 15.2805 42.6829 15.1707 42.3171 15.1707V14.0732L41.926 13.1858L41.7683 11.878L41.926 10.7805L42.8659 10.2317H43.4146Z" fill="url(#paint18_radial_23_67)"/>
<path d="M11.4603 32.9578C11.1585 32.9175 10.5828 33.0174 10.6941 33.7396C10.8055 34.4617 10.9803 34.9566 11.0537 35.1137L11.2313 35.4935C11.401 35.8565 11.4326 36.2689 11.3202 36.6535V36.6535C11.2441 36.9134 11.1052 37.1506 10.9156 37.344L10.6936 37.5706L10.4382 37.8312" stroke="#CC771A" stroke-opacity="0.6" stroke-width="0.3"/>
<path d="M21.9943 33.6232C21.9258 33.3266 21.6296 32.8229 20.9929 33.1814C20.3562 33.5399 19.9545 33.8778 19.8333 34.0019L19.5404 34.3018C19.2604 34.5885 18.8856 34.7633 18.486 34.7934V34.7934C18.2159 34.8138 17.945 34.7673 17.6973 34.658L17.407 34.5299L17.0732 34.3826" stroke="#CC771A" stroke-opacity="0.6" stroke-width="0.3"/>
</g>
</g>
<defs>
<filter id="filter0_d_23_67" x="7.58537" y="11.2707" width="91.4146" height="91.4146" filterUnits="userSpaceOnUse" color-interpolation-filters="sRGB">
<feFlood flood-opacity="0" result="BackgroundImageFix"/>
<feColorMatrix in="SourceAlpha" type="matrix" values="0 0 0 0 0 0 0 0 0 0 0 0 0 0 0 0 0 0 127 0" result="hardAlpha"/>
<feOffset dy="0.1"/>
<feGaussianBlur stdDeviation="2"/>
<feComposite in2="hardAlpha" operator="out"/>
<feColorMatrix type="matrix" values="0 0 0 0 0 0 0 0 0 0 0 0 0 0 0 0 0 0 0.25 0"/>
<feBlend mode="normal" in2="BackgroundImageFix" result="effect1_dropShadow_23_67"/>
<feBlend mode="normal" in="SourceGraphic" in2="effect1_dropShadow_23_67" result="shape"/>
</filter>
<filter id="filter1_d_23_67" x="10.6604" y="7.9233" width="83.2018" height="91.7453" filterUnits="userSpaceOnUse" color-interpolation-filters="sRGB">
<feFlood flood-opacity="0" result="BackgroundImageFix"/>
<feColorMatrix in="SourceAlpha" type="matrix" values="0 0 0 0 0 0 0 0 0 0 0 0 0 0 0 0 0 0 127 0" result="hardAlpha"/>
<feOffset dy="0.1"/>
<feGaussianBlur stdDeviation="2"/>
<feComposite in2="hardAlpha" operator="out"/>
<feColorMatrix type="matrix" values="0 0 0 0 0 0 0 0 0 0 0 0 0 0 0 0 0 0 0.25 0"/>
<feBlend mode="normal" in2="BackgroundImageFix" result="effect1_dropShadow_23_67"/>
<feBlend mode="normal" in="SourceGraphic" in2="effect1_dropShadow_23_67" result="shape"/>
</filter>
<filter id="filter2_d_23_67" x="1" y="-1.9" width="53" height="50.8049" filterUnits="userSpaceOnUse" color-interpolation-filters="sRGB">
<feFlood flood-opacity="0" result="BackgroundImageFix"/>
<feColorMatrix in="SourceAlpha" type="matrix" values="0 0 0 0 0 0 0 0 0 0 0 0 0 0 0 0 0 0 127 0" result="hardAlpha"/>
<feOffset dy="0.1"/>
<feGaussianBlur stdDeviation="2"/>
<feComposite in2="hardAlpha" operator="out"/>
<feColorMatrix type="matrix" values="0 0 0 0 0 0 0 0 0 0 0 0 0 0 0 0 0 0 0.25 0"/>
<feBlend mode="normal" in2="BackgroundImageFix" result="effect1_dropShadow_23_67"/>
<feBlend mode="normal" in="SourceGraphic" in2="effect1_dropShadow_23_67" result="shape"/>
</filter>
<radialGradient id="paint0_radial_23_67" cx="0" cy="0" r="1" gradientUnits="userSpaceOnUse" gradientTransform="translate(53.2927 56.878) rotate(90) scale(41.7073)">
<stop offset="0.192708" stop-color="#E8AB59"/>
<stop offset="0.567708" stop-color="#CF994F"/>
<stop offset="1" stop-color="#A87B3E"/>
</radialGradient>
<radialGradient id="paint1_radial_23_67" cx="0" cy="0" r="1" gradientUnits="userSpaceOnUse" gradientTransform="translate(30.5183 43.9817) rotate(90) scale(0.823171)">
<stop stop-color="#DAA558"/>
<stop offset="1" stop-color="#C99952" stop-opacity="0.94"/>
</radialGradient>
<radialGradient id="paint2_radial_23_67" cx="0" cy="0" r="1" gradientUnits="userSpaceOnUse" gradientTransform="translate(28.0488 39.8659) rotate(90) scale(0.548781)">
<stop stop-color="#DAA558"/>
<stop offset="1" stop-color="#C99952" stop-opacity="0.94"/>
</radialGradient>
<radialGradient id="paint3_radial_23_67" cx="0" cy="0" r="1" gradientUnits="userSpaceOnUse" gradientTransform="translate(29.9695 24.2256) rotate(90) scale(0.823171)">
<stop stop-color="#DAA558"/>
<stop offset="1" stop-color="#C99952" stop-opacity="0.94"/>
</radialGradient>
<radialGradient id="paint4_radial_23_67" cx="0" cy="0" r="1" gradientUnits="userSpaceOnUse" gradientTransform="translate(27.5 20.1098) rotate(90) scale(0.548781)">
<stop stop-color="#DAA558"/>
<stop offset="1" stop-color="#C99952" stop-opacity="0.94"/>
</radialGradient>
<radialGradient id="paint5_radial_23_67" cx="0" cy="0" r="1" gradientUnits="userSpaceOnUse" gradientTransform="translate(12.4085 14.3476) rotate(90) scale(0.823171)">
<stop stop-color="#DAA558"/>
<stop offset="1" stop-color="#C99952" stop-opacity="0.94"/>
</radialGradient>
<radialGradient id="paint6_radial_23_67" cx="0" cy="0" r="1" gradientUnits="userSpaceOnUse" gradientTransform="translate(9.93902 10.2317) rotate(90) scale(0.548781)">
<stop stop-color="#DAA558"/>
<stop offset="1" stop-color="#C99952" stop-opacity="0.94"/>
</radialGradient>
<radialGradient id="paint7_radial_23_67" cx="0" cy="0" r="1" gradientUnits="userSpaceOnUse" gradientTransform="translate(15.0631 35.231) rotate(90) scale(6.34075 9.14419)">
<stop stop-color="#DAA558"/>
<stop offset="1" stop-color="#C99952" stop-opacity="0.94"/>
</radialGradient>
<radialGradient id="paint8_radial_23_67" cx="0" cy="0" r="1" gradientUnits="userSpaceOnUse" gradientTransform="translate(44.2378 28.6158) rotate(90) scale(3.01829 1.92073)">
<stop stop-color="#DAA558"/>
<stop offset="1" stop-color="#C99952" stop-opacity="0.94"/>
</radialGradient>
<radialGradient id="paint9_radial_23_67" cx="0" cy="0" r="1" gradientUnits="userSpaceOnUse" gradientTransform="translate(36.5549 19.8354) rotate(90) scale(4.66463)">
<stop stop-color="#DAA558"/>
<stop offset="1" stop-color="#C99952" stop-opacity="0.94"/>
</radialGradient>
<radialGradient id="paint10_radial_23_67" cx="0" cy="0" r="1" gradientUnits="userSpaceOnUse" gradientTransform="translate(43.9634 12.9756) rotate(90) scale(3.29268 2.19512)">
<stop stop-color="#DAA558"/>
<stop offset="1" stop-color="#C99952" stop-opacity="0.94"/>
</radialGradient>
<radialGradient id="paint11_radial_23_67" cx="0" cy="0" r="1" gradientUnits="userSpaceOnUse" gradientTransform="translate(9.39024 22.0305) rotate(90) scale(1.92073 4.39024)">
<stop stop-color="#DAA558"/>
<stop offset="1" stop-color="#C99952" stop-opacity="0.94"/>
</radialGradient>
<radialGradient id="paint12_radial_23_67" cx="0" cy="0" r="1" gradientUnits="userSpaceOnUse" gradientTransform="translate(14.8781 21.2828) rotate(90) scale(2.8194 2.19512)">
<stop stop-color="#DAA558"/>
<stop offset="1" stop-color="#C99952" stop-opacity="0.94"/>
</radialGradient>
<radialGradient id="paint13_radial_23_67" cx="0" cy="0" r="1" gradientUnits="userSpaceOnUse" gradientTransform="translate(32.439 31.4353) rotate(90) scale(1.99623 2.7439)">
<stop stop-color="#DAA558"/>
<stop offset="1" stop-color="#C99952" stop-opacity="0.94"/>
</radialGradient>
<radialGradient id="paint14_radial_23_67" cx="0" cy="0" r="1" gradientUnits="userSpaceOnUse" gradientTransform="translate(27.7744 5.56707) rotate(90) scale(3.56707 2.46951)">
<stop stop-color="#DAA558"/>
<stop offset="1" stop-color="#C99952" stop-opacity="0.94"/>
</radialGradient>
<radialGradient id="paint15_radial_23_67" cx="0" cy="0" r="1" gradientUnits="userSpaceOnUse" gradientTransform="translate(34.9085 5.29269) rotate(90) scale(2.19512 1.37195)">
<stop stop-color="#DAA558"/>
<stop offset="1" stop-color="#C99952" stop-opacity="0.94"/>
</radialGradient>
<radialGradient id="paint16_radial_23_67" cx="0" cy="0" r="1" gradientUnits="userSpaceOnUse" gradientTransform="translate(45.8841 8.15778) rotate(90) scale(1.21877 1.37195)">
<stop stop-color="#DAA558"/>
<stop offset="1" stop-color="#C99952" stop-opacity="0.94"/>
</radialGradient>
<radialGradient id="paint17_radial_23_67" cx="0" cy="0" r="1" gradientUnits="userSpaceOnUse" gradientTransform="translate(47.8049 17.3659) rotate(90) scale(2.19512)">
<stop stop-color="#DAA558"/>
<stop offset="1" stop-color="#C99952" stop-opacity="0.94"/>
</radialGradient>
<radialGradient id="paint18_radial_23_67" cx="0" cy="0" r="1" gradientUnits="userSpaceOnUse" gradientTransform="translate(43.9634 13.3637) rotate(90) scale(3.13195 2.19512)">
<stop stop-color="#DAA558"/>
<stop offset="1" stop-color="#C99952" stop-opacity="0.94"/>
</radialGradient>
<clipPath id="clip0_23_67">
<rect width="100" height="100" fill="white"/>
</clipPath>
</defs>
</svg>
