<svg width="100" height="100" viewBox="0 0 100 100" fill="none" xmlns="http://www.w3.org/2000/svg">
<g clip-path="url(#clip0_31_2)">
<mask id="path-1-outside-1_31_2" maskUnits="userSpaceOnUse" x="-15.0981" y="-10.1045" width="121.746" height="126.87" fill="black">
<rect fill="white" x="-15.0981" y="-10.1045" width="121.746" height="126.87"/>
<path fill-rule="evenodd" clip-rule="evenodd" d="M60.1776 4.92124C61.3128 5.14564 61.0759 6.89851 59.9296 7.05694C55.6167 7.65301 51.3446 9.07605 47.3416 11.3872C30.7424 20.9708 25.055 42.1962 34.6386 58.7955C44.2222 75.3948 65.4476 81.0821 82.0469 71.4985C86.6984 68.813 90.4931 65.2132 93.335 61.0573C93.9882 60.102 95.6612 60.6724 95.3547 61.7883C92.2865 72.9593 84.9903 82.9742 74.1651 89.2242C52.3359 101.827 24.423 94.348 11.8199 72.5188C-0.783177 50.6896 6.69606 22.7768 28.5252 10.1737C38.4868 4.42236 49.7153 2.85314 60.1776 4.92124Z"/>
</mask>
<path d="M93.335 61.0573L90.8586 59.3639L93.335 61.0573ZM95.3547 61.7883L98.2476 62.5829L95.3547 61.7883ZM60.1776 4.92124L60.7593 1.97819L60.1776 4.92124ZM48.8416 13.9853C52.5034 11.8712 56.4047 10.5726 60.3403 10.0287L59.5189 4.08518C54.8287 4.7334 50.1859 6.28096 45.8416 8.78911L48.8416 13.9853ZM37.2367 57.2955C28.4815 42.1311 33.6772 22.7404 48.8416 13.9853L45.8416 8.78911C27.8075 19.2011 21.6285 42.2613 32.0405 60.2955L37.2367 57.2955ZM80.5469 68.9004C65.3825 77.6556 45.9919 72.4599 37.2367 57.2955L32.0405 60.2955C42.4526 78.3296 65.5128 84.5086 83.5469 74.0966L80.5469 68.9004ZM90.8586 59.3639C88.2649 63.1569 84.8011 66.4443 80.5469 68.9004L83.5469 74.0966C88.5958 71.1816 92.7213 67.2695 95.8113 62.7507L90.8586 59.3639ZM92.4618 60.9938C89.5942 71.4347 82.7795 80.7865 72.6651 86.6261L75.6651 91.8222C87.201 85.162 94.9789 74.4838 98.2476 62.5829L92.4618 60.9938ZM72.6651 86.6261C52.2708 98.4007 26.1926 91.4131 14.418 71.0188L9.22184 74.0188C22.6534 97.2829 52.401 105.254 75.6651 91.8222L72.6651 86.6261ZM14.418 71.0188C2.64333 50.6245 9.63093 24.5464 30.0252 12.7717L27.0252 7.57559C3.76118 21.0071 -4.20968 50.7548 9.22184 74.0188L14.418 71.0188ZM30.0252 12.7717C39.3339 7.39742 49.819 5.93169 59.5958 7.8643L60.7593 1.97819C49.6115 -0.225414 37.6397 1.44731 27.0252 7.57559L30.0252 12.7717ZM95.8113 62.7507C95.2025 63.641 94.2224 63.657 93.7075 63.4755C93.417 63.3731 93.0227 63.1424 92.7267 62.6755C92.3914 62.1467 92.3178 61.5182 92.4618 60.9938L98.2476 62.5829C98.5448 61.5005 98.3771 60.3822 97.7939 59.4625C97.2499 58.6047 96.4541 58.0818 95.7019 57.8167C94.2639 57.3099 92.1206 57.5183 90.8586 59.3639L95.8113 62.7507ZM60.3403 10.0287C62.5558 9.72249 63.6976 7.89648 63.8861 6.38501C63.9847 5.59409 63.8726 4.64881 63.3485 3.7791C62.7866 2.8464 61.8612 2.196 60.7593 1.97819L59.5958 7.8643C59.0615 7.75869 58.5322 7.41154 58.2093 6.87557C57.9243 6.40258 57.8942 5.9475 57.9322 5.64265C57.9994 5.10332 58.4496 4.23296 59.5189 4.08518L60.3403 10.0287Z" fill="#2463AA" mask="url(#path-1-outside-1_31_2)"/>
</g>
<defs>
<clipPath id="clip0_31_2">
<rect width="100" height="100" fill="white"/>
</clipPath>
</defs>
</svg>
