<svg width="100" height="100" viewBox="0 0 100 100" fill="none" xmlns="http://www.w3.org/2000/svg">
<g clip-path="url(#clip0_23_28)">
<path d="M67 88H87.5L88 30H87L49.5 57.5L12 30V33L67 88Z" fill="#BCBCBC"/>
<path d="M12 33L12.5 88L42.5 63.5L12 33Z" fill="#D0CFCF"/>
<path d="M67 88H12.5L42.5 63.5L67 88Z" fill="#E3E3E3"/>
<path d="M87.5 13H93.5C96.8137 13 99.5 15.6863 99.5 19V82C99.5 85.3137 96.8137 88 93.5 88H87L87.5 13Z" fill="#D54B3D"/>
<path d="M12 13H6C2.68629 13 0 15.6863 0 19V82C0 85.3137 2.68629 88 6 88H12.5L12 13Z" fill="#D54B3D"/>
<path d="M7 12.5H92L50 43L7 12.5Z" fill="#EAEAEA"/>
<path d="M1.54654 14.8294C3.50524 12.1622 7.25528 11.5878 9.92249 13.5465L56.737 47.9253L49.6439 57.5841L2.82942 23.2053C0.162208 21.2466 -0.412156 17.4966 1.54654 14.8294Z" fill="#D54B3D"/>
<path d="M97.9312 14.8064C99.8855 17.4768 99.3049 21.2259 96.6345 23.1802L49.6421 57.5709L42.5649 47.9004L89.5573 13.5097C92.2278 11.5554 95.9769 12.1359 97.9312 14.8064Z" fill="#D54B3D"/>
</g>
<defs>
<clipPath id="clip0_23_28">
<rect width="100" height="100" fill="white"/>
</clipPath>
</defs>
</svg>
