<svg width="224" height="204" viewBox="0 0 224 204" fill="none" xmlns="http://www.w3.org/2000/svg">
<mask id="path-1-inside-1_111_16" fill="white">
<path fill-rule="evenodd" clip-rule="evenodd" d="M205.045 110.689C230.367 85.3677 230.367 44.313 205.045 18.9913C179.763 -6.29028 138.788 -6.33617 113.45 18.8887L111.913 20.418L110.565 19.07C85.2721 -6.22336 44.2634 -6.22334 18.97 19.07C-6.32333 44.3634 -6.32334 85.3721 18.97 110.665L104.502 196.198L111.762 203.973L112.019 203.715L112.305 204L203.9 112.405L203.615 112.119L205.045 110.689Z"/>
</mask>
<path d="M205.045 18.9913L212.116 11.9202L205.045 18.9913ZM205.045 110.689L212.116 117.76L212.116 117.76L205.045 110.689ZM113.45 18.8887L120.505 25.9756L120.505 25.9756L113.45 18.8887ZM111.913 20.418L104.842 27.489L111.898 34.5443L118.969 27.5049L111.913 20.418ZM110.565 19.07L117.637 11.9989L117.637 11.9989L110.565 19.07ZM18.97 19.07L11.899 11.9989L18.97 19.07ZM18.97 110.665L11.899 117.736L18.97 110.665ZM104.502 196.198L111.811 189.373L111.694 189.248L111.573 189.126L104.502 196.198ZM111.762 203.973L104.452 210.797L111.515 218.361L118.833 211.044L111.762 203.973ZM112.019 203.715L119.09 196.644L112.02 189.573L104.948 196.644L112.019 203.715ZM112.305 204L105.233 211.071L112.305 218.142L119.376 211.071L112.305 204ZM203.9 112.405L210.971 119.476L218.042 112.405L210.971 105.333L203.9 112.405ZM203.615 112.119L196.544 105.048L189.473 112.119L196.544 119.19L203.615 112.119ZM197.974 26.0623C219.39 47.4788 219.39 82.2018 197.974 103.618L212.116 117.76C241.343 88.5334 241.343 41.1472 212.116 11.9202L197.974 26.0623ZM120.505 25.9756C141.935 4.64099 176.591 4.6798 197.974 26.0623L212.116 11.9202C182.935 -17.2605 135.64 -17.3134 106.394 11.8018L120.505 25.9756ZM118.969 27.5049L120.505 25.9756L106.394 11.8018L104.858 13.3311L118.969 27.5049ZM103.494 26.141L104.842 27.489L118.985 13.3469L117.637 11.9989L103.494 26.141ZM26.0411 26.1411C47.4292 4.75292 82.1063 4.75291 103.494 26.141L117.637 11.9989C88.4379 -17.1997 41.0976 -17.1997 11.899 11.9989L26.0411 26.1411ZM26.0411 103.594C4.65296 82.2062 4.65297 47.5292 26.0411 26.1411L11.899 11.9989C-17.2996 41.1975 -17.2997 88.5379 11.899 117.736L26.0411 103.594ZM111.573 189.126L26.0411 103.594L11.899 117.736L97.4311 203.269L111.573 189.126ZM119.071 197.148L111.811 189.373L97.1929 203.022L104.452 210.797L119.071 197.148ZM104.948 196.644L104.691 196.901L118.833 211.044L119.09 210.786L104.948 196.644ZM119.376 196.929L119.09 196.644L104.948 210.786L105.233 211.071L119.376 196.929ZM196.829 105.333L105.233 196.929L119.376 211.071L210.971 119.476L196.829 105.333ZM196.544 119.19L196.829 119.476L210.971 105.333L210.686 105.048L196.544 119.19ZM197.974 103.618L196.544 105.048L210.686 119.19L212.116 117.76L197.974 103.618Z" fill="url(#paint0_linear_111_16)" fill-opacity="0.7" mask="url(#path-1-inside-1_111_16)"/>
<defs>
<linearGradient id="paint0_linear_111_16" x1="112.018" y1="0" x2="112.018" y2="204" gradientUnits="userSpaceOnUse">
<stop stop-color="#DDC2C2" stop-opacity="0.626506"/>
<stop offset="0.515625" stop-color="#FF1818"/>
<stop offset="1" stop-color="#FF1818" stop-opacity="0"/>
</linearGradient>
</defs>
</svg>
