<svg width="100" height="100" viewBox="0 0 100 100" fill="none" xmlns="http://www.w3.org/2000/svg">
<rect x="5" y="5" width="90" height="90" rx="10" fill="#2463AA"/>
<path d="M50.5 90C61.3498 90 71.2693 88.0051 78.5512 84.6951C85.6526 81.4672 91 76.599 91 70.5C91 64.401 85.6526 59.5328 78.5512 56.3049C71.2693 52.9949 61.3498 51 50.5 51C39.6502 51 29.7307 52.9949 22.4488 56.3049C15.3474 59.5328 10 64.401 10 70.5C10 76.599 15.3474 81.4672 22.4488 84.6951C29.7307 88.0051 39.6502 90 50.5 90Z" stroke="white" stroke-width="4"/>
<mask id="path-3-outside-1_18_200" maskUnits="userSpaceOnUse" x="14" y="30" width="32" height="20" fill="black">
<rect fill="white" x="14" y="30" width="32" height="20"/>
<path d="M40 46C41.1046 46 42.017 45.0985 41.8337 44.0092C41.6839 43.1188 41.4337 42.246 41.0866 41.4078C40.4835 39.9519 39.5996 38.629 38.4853 37.5147C37.371 36.4004 36.0481 35.5165 34.5922 34.9134C33.1363 34.3104 31.5759 34 30 34C28.4241 34 26.8637 34.3104 25.4078 34.9134C23.9519 35.5165 22.629 36.4004 21.5147 37.5147C20.4004 38.629 19.5165 39.9519 18.9134 41.4078C18.5663 42.246 18.3161 43.1188 18.1663 44.0092C17.983 45.0985 18.8954 46 20 46L30 46H40Z"/>
</mask>
<path d="M40 46C41.1046 46 42.017 45.0985 41.8337 44.0092C41.6839 43.1188 41.4337 42.246 41.0866 41.4078C40.4835 39.9519 39.5996 38.629 38.4853 37.5147C37.371 36.4004 36.0481 35.5165 34.5922 34.9134C33.1363 34.3104 31.5759 34 30 34C28.4241 34 26.8637 34.3104 25.4078 34.9134C23.9519 35.5165 22.629 36.4004 21.5147 37.5147C20.4004 38.629 19.5165 39.9519 18.9134 41.4078C18.5663 42.246 18.3161 43.1188 18.1663 44.0092C17.983 45.0985 18.8954 46 20 46L30 46H40Z" fill="#2463AA"/>
<path d="M40 46C41.1046 46 42.017 45.0985 41.8337 44.0092C41.6839 43.1188 41.4337 42.246 41.0866 41.4078C40.4835 39.9519 39.5996 38.629 38.4853 37.5147C37.371 36.4004 36.0481 35.5165 34.5922 34.9134C33.1363 34.3104 31.5759 34 30 34C28.4241 34 26.8637 34.3104 25.4078 34.9134C23.9519 35.5165 22.629 36.4004 21.5147 37.5147C20.4004 38.629 19.5165 39.9519 18.9134 41.4078C18.5663 42.246 18.3161 43.1188 18.1663 44.0092C17.983 45.0985 18.8954 46 20 46L30 46H40Z" stroke="white" stroke-width="8" mask="url(#path-3-outside-1_18_200)"/>
<circle cx="30.5" cy="24.5" r="8.5" fill="#2463AA" stroke="white" stroke-width="4"/>
<path d="M24 48H22V50V62C22 63.6569 23.3431 65 25 65H27C28.6569 65 30 63.6569 30 62V50V48H28H24Z" fill="#2463AA" stroke="white" stroke-width="4"/>
<path d="M32 48H30V50V62C30 63.6569 31.3431 65 33 65H35C36.6569 65 38 63.6569 38 62V50V48H36H32Z" fill="#2463AA" stroke="white" stroke-width="4"/>
<rect x="24" y="43" width="12" height="11" fill="#2463AA"/>
<mask id="path-8-outside-2_18_200" maskUnits="userSpaceOnUse" x="54" y="30" width="32" height="20" fill="black">
<rect fill="white" x="54" y="30" width="32" height="20"/>
<path d="M80 46C81.1046 46 82.017 45.0985 81.8337 44.0092C81.6839 43.1188 81.4337 42.246 81.0866 41.4078C80.4835 39.9519 79.5996 38.629 78.4853 37.5147C77.371 36.4004 76.0481 35.5165 74.5922 34.9134C73.1363 34.3104 71.5759 34 70 34C68.4241 34 66.8637 34.3104 65.4078 34.9134C63.9519 35.5165 62.629 36.4004 61.5147 37.5147C60.4004 38.629 59.5165 39.9519 58.9134 41.4078C58.5663 42.246 58.3161 43.1188 58.1663 44.0092C57.983 45.0985 58.8954 46 60 46L70 46H80Z"/>
</mask>
<path d="M80 46C81.1046 46 82.017 45.0985 81.8337 44.0092C81.6839 43.1188 81.4337 42.246 81.0866 41.4078C80.4835 39.9519 79.5996 38.629 78.4853 37.5147C77.371 36.4004 76.0481 35.5165 74.5922 34.9134C73.1363 34.3104 71.5759 34 70 34C68.4241 34 66.8637 34.3104 65.4078 34.9134C63.9519 35.5165 62.629 36.4004 61.5147 37.5147C60.4004 38.629 59.5165 39.9519 58.9134 41.4078C58.5663 42.246 58.3161 43.1188 58.1663 44.0092C57.983 45.0985 58.8954 46 60 46L70 46H80Z" fill="#2463AA"/>
<path d="M80 46C81.1046 46 82.017 45.0985 81.8337 44.0092C81.6839 43.1188 81.4337 42.246 81.0866 41.4078C80.4835 39.9519 79.5996 38.629 78.4853 37.5147C77.371 36.4004 76.0481 35.5165 74.5922 34.9134C73.1363 34.3104 71.5759 34 70 34C68.4241 34 66.8637 34.3104 65.4078 34.9134C63.9519 35.5165 62.629 36.4004 61.5147 37.5147C60.4004 38.629 59.5165 39.9519 58.9134 41.4078C58.5663 42.246 58.3161 43.1188 58.1663 44.0092C57.983 45.0985 58.8954 46 60 46L70 46H80Z" stroke="white" stroke-width="8" mask="url(#path-8-outside-2_18_200)"/>
<circle cx="70.5" cy="24.5" r="8.5" fill="#2463AA" stroke="white" stroke-width="4"/>
<path d="M64 48H62V50V62C62 63.6569 63.3431 65 65 65H67C68.6569 65 70 63.6569 70 62V50V48H68H64Z" fill="#2463AA" stroke="white" stroke-width="4"/>
<path d="M72 48H70V50V62C70 63.6569 71.3431 65 73 65H75C76.6569 65 78 63.6569 78 62V50V48H76H72Z" fill="#2463AA" stroke="white" stroke-width="4"/>
<rect x="64" y="42" width="12" height="12" fill="#2463AA"/>
<mask id="path-13-outside-3_18_200" maskUnits="userSpaceOnUse" x="34" y="43" width="32" height="20" fill="black">
<rect fill="white" x="34" y="43" width="32" height="20"/>
<path d="M60 59C61.1046 59 62.017 58.0985 61.8337 57.0092C61.6839 56.1188 61.4337 55.246 61.0866 54.4078C60.4835 52.9519 59.5996 51.629 58.4853 50.5147C57.371 49.4004 56.0481 48.5165 54.5922 47.9134C53.1363 47.3104 51.5759 47 50 47C48.4241 47 46.8637 47.3104 45.4078 47.9134C43.9519 48.5165 42.629 49.4004 41.5147 50.5147C40.4004 51.629 39.5165 52.9519 38.9134 54.4078C38.5663 55.246 38.3161 56.1188 38.1663 57.0092C37.983 58.0985 38.8954 59 40 59L50 59H60Z"/>
</mask>
<path d="M60 59C61.1046 59 62.017 58.0985 61.8337 57.0092C61.6839 56.1188 61.4337 55.246 61.0866 54.4078C60.4835 52.9519 59.5996 51.629 58.4853 50.5147C57.371 49.4004 56.0481 48.5165 54.5922 47.9134C53.1363 47.3104 51.5759 47 50 47C48.4241 47 46.8637 47.3104 45.4078 47.9134C43.9519 48.5165 42.629 49.4004 41.5147 50.5147C40.4004 51.629 39.5165 52.9519 38.9134 54.4078C38.5663 55.246 38.3161 56.1188 38.1663 57.0092C37.983 58.0985 38.8954 59 40 59L50 59H60Z" fill="#2463AA"/>
<path d="M60 59C61.1046 59 62.017 58.0985 61.8337 57.0092C61.6839 56.1188 61.4337 55.246 61.0866 54.4078C60.4835 52.9519 59.5996 51.629 58.4853 50.5147C57.371 49.4004 56.0481 48.5165 54.5922 47.9134C53.1363 47.3104 51.5759 47 50 47C48.4241 47 46.8637 47.3104 45.4078 47.9134C43.9519 48.5165 42.629 49.4004 41.5147 50.5147C40.4004 51.629 39.5165 52.9519 38.9134 54.4078C38.5663 55.246 38.3161 56.1188 38.1663 57.0092C37.983 58.0985 38.8954 59 40 59L50 59H60Z" stroke="white" stroke-width="8" mask="url(#path-13-outside-3_18_200)"/>
<circle cx="50.5" cy="37.5" r="8.5" fill="#2463AA" stroke="white" stroke-width="4"/>
<path d="M44 61H42V63V75C42 76.6569 43.3431 78 45 78H47C48.6569 78 50 76.6569 50 75V63V61H48H44Z" fill="#2463AA" stroke="white" stroke-width="4"/>
<path d="M52 61H50V63V75C50 76.6569 51.3431 78 53 78H55C56.6569 78 58 76.6569 58 75V63V61H56H52Z" fill="#2463AA" stroke="white" stroke-width="4"/>
<rect x="44" y="55" width="12" height="12" fill="#2463AA"/>
</svg>
