<svg width="100" height="64" viewBox="0 0 100 64" fill="none" xmlns="http://www.w3.org/2000/svg">
<g clip-path="url(#clip0_6_16)">
<mask id="mask0_6_16" style="mask-type:alpha" maskUnits="userSpaceOnUse" x="3" y="2" width="95" height="60">
<path d="M95.7899 62C96.8945 62 97.7927 61.1044 97.7636 60.0002C97.574 52.803 96.3623 45.7021 94.1822 39.039C91.8004 31.7595 88.3093 25.1451 83.9083 19.5736C79.5072 14.0021 74.2824 9.58251 68.5322 6.56723C62.782 3.55195 56.619 2 50.395 2C44.171 2 38.0079 3.55195 32.2577 6.56723C26.5075 9.58251 21.2827 14.0021 16.8817 19.5736C12.4806 25.1451 8.98954 31.7595 6.60773 39.039C4.42761 45.7021 3.21592 52.803 3.02633 60.0002C2.99725 61.1044 3.89543 62 5 62L50.395 62H95.7899Z" fill="#142D55"/>
</mask>
<g mask="url(#mask0_6_16)">
<path d="M95.7899 62C96.8945 62 97.7927 61.1044 97.7636 60.0002C97.574 52.803 96.3623 45.7021 94.1822 39.039C91.8004 31.7595 88.3093 25.1451 83.9083 19.5736C79.5072 14.0021 74.2824 9.58251 68.5322 6.56723C62.782 3.55195 56.619 2 50.395 2C44.171 2 38.0079 3.55195 32.2577 6.56723C26.5075 9.58251 21.2827 14.0021 16.8817 19.5736C12.4806 25.1451 8.98954 31.7595 6.60773 39.039C4.42761 45.7021 3.21592 52.803 3.02633 60.0002C2.99725 61.1044 3.89543 62 5 62L50.395 62H95.7899Z" fill="#142D55"/>
<path d="M8 32C11.5422 37.707 88.3566 36.9461 92 32" stroke="white" stroke-width="2"/>
<path d="M8 18C11.5 24 87.4 23.2 91 18" stroke="white" stroke-width="2"/>
<path d="M8 4C11.5 10 87.4 9.2 91 4" stroke="white" stroke-width="2"/>
<path d="M4 46C7.87952 51.707 92.0096 50.9461 96 46" stroke="white" stroke-width="2"/>
<path d="M60 61L40 61V47C40 42.0294 44.0294 38 49 38H51C55.9706 38 60 42.0294 60 47V61Z" fill="white" stroke="#142D55" stroke-width="2"/>
<path d="M28.5608 22.1555C27.384 24.1329 24.9121 29.4391 24.4392 34.8445" stroke="white" stroke-width="2"/>
<path d="M40.5987 7.43116C39.219 9.62541 36.2021 15.5578 35.1723 21.7334" stroke="white" stroke-width="2"/>
<path d="M57 7.52094C58.4001 9.70227 61.472 15.6064 62.5591 21.7721" stroke="white" stroke-width="2"/>
<path d="M69.4392 22.1555C70.616 24.1329 73.0879 29.4391 73.5608 34.8445" stroke="white" stroke-width="2"/>
<path d="M14 34C12.6667 36.2319 10 42.1565 10 48" stroke="white" stroke-width="2"/>
<path d="M84 34C85.3333 36.2319 88 42.1565 88 48" stroke="white" stroke-width="2"/>
<path d="M80.6259 48.7295C81.423 51.2041 82.6886 57.5768 81.3741 63.2705" stroke="white" stroke-width="2"/>
<path d="M23.4994 49.8291C22.9912 52.0734 22.28 57.8838 23.5006 63.1708" stroke="white" stroke-width="2"/>
<rect x="49" y="23" width="2" height="13" fill="white"/>
<rect x="41" y="60" width="18" height="2" fill="white"/>
</g>
</g>
<defs>
<clipPath id="clip0_6_16">
<rect width="100" height="64" fill="white"/>
</clipPath>
</defs>
</svg>
