<svg width="100" height="100" viewBox="0 0 100 100" fill="none" xmlns="http://www.w3.org/2000/svg">
<path fill-rule="evenodd" clip-rule="evenodd" d="M40 90H82C86.4183 90 90 86.4183 90 82V18C90 13.5817 86.4183 10 82 10H40V16H82C83.1046 16 84 16.8954 84 18V82C84 83.1046 83.1046 84 82 84H40V90Z" fill="#2463AA"/>
<path fill-rule="evenodd" clip-rule="evenodd" d="M69.5 50.866C70.1667 50.4811 70.1667 49.5189 69.5 49.134L32 27.4833C31.3333 27.0984 30.5 27.5796 30.5 28.3494V40H11C10.4477 40 10 40.4477 10 41V59C10 59.5523 10.4477 60 11 60H30.5V71.6506C30.5 72.4204 31.3333 72.9016 32 72.5167L69.5 50.866Z" fill="#2463AA"/>
</svg>
