<svg width="675" height="777" viewBox="0 0 675 777" fill="none" xmlns="http://www.w3.org/2000/svg">
<path d="M0 283H675V777H0V283Z" fill="url(#paint0_linear_218_2)"/>
<rect y="751" width="675" height="2" fill="black"/>
<rect y="753" width="675" height="24" fill="url(#paint1_linear_218_2)"/>
<rect x="128" y="685" width="26" height="38" fill="#FFCEB5"/>
<rect x="228" y="684" width="26" height="38" fill="#FFCEB5"/>
<path fill-rule="evenodd" clip-rule="evenodd" d="M155.132 712.137C154.244 711.438 152.981 712.041 152.048 712.678C151.299 713.19 150.275 713.585 149.02 713.832C146.523 714.324 143.316 714.193 140.105 713.467C136.895 712.741 133.944 711.479 131.901 709.96C130.824 709.159 130.046 708.32 129.598 707.498C129.158 706.689 128.52 705.877 127.618 705.69L126.999 705.562C125.255 705.201 123.439 705.518 121.921 706.449L71.3684 737.446C69.8556 738.373 68.7748 739.865 68.3652 741.592C68.125 742.604 68.125 743.659 68.3652 744.671L68.9074 746.957C68.9724 747.231 69.0593 747.499 69.1672 747.759C69.9817 749.721 71.8973 751 74.0218 751H157.875C162.478 751 165.828 746.633 164.636 742.186L157.564 715.825C157.165 714.337 156.298 713.054 155.132 712.137Z" fill="#5F5F5F"/>
<rect x="107" y="715.654" width="2" height="11.2202" transform="rotate(-31.7393 107 715.654)" fill="white"/>
<rect x="110.683" y="713.389" width="2" height="10.8241" transform="rotate(-31.7393 110.683 713.389)" fill="white"/>
<rect x="114.474" y="711.052" width="2" height="10.8241" transform="rotate(-31.7393 114.474 711.052)" fill="white"/>
<path fill-rule="evenodd" clip-rule="evenodd" d="M226.747 712.22C227.635 711.521 228.898 712.125 229.831 712.762C230.58 713.273 231.604 713.668 232.858 713.915C235.356 714.408 238.563 714.277 241.773 713.55C244.984 712.824 247.935 711.563 249.978 710.043C251.055 709.242 251.833 708.404 252.28 707.582C252.721 706.773 253.359 705.96 254.261 705.774L254.88 705.645C256.624 705.284 258.44 705.602 259.958 706.532L310.51 737.529C312.023 738.457 313.104 739.949 313.514 741.675C313.754 742.688 313.754 743.742 313.514 744.754L312.971 747.04C312.906 747.314 312.819 747.582 312.711 747.842C311.897 749.805 309.981 751.083 307.857 751.083H224.004C219.4 751.083 216.05 746.716 217.243 742.27L224.314 715.908C224.713 714.42 225.581 713.138 226.747 712.22Z" fill="#5F5F5F"/>
<rect width="2" height="11.2202" transform="matrix(-0.850451 -0.526055 -0.526055 0.850451 273.869 715.154)" fill="white"/>
<rect width="2" height="10.8241" transform="matrix(-0.850451 -0.526055 -0.526055 0.850451 270.187 712.889)" fill="white"/>
<rect width="2" height="10.8241" transform="matrix(-0.850451 -0.526055 -0.526055 0.850451 266.395 710.552)" fill="white"/>
<path d="M131 360.025L197.5 359.025L165.5 521.525L166.991 694.016C166.996 694.572 166.547 695.025 165.991 695.025H115.491C114.942 695.025 114.496 694.583 114.491 694.034L113 521.525L131 360.025Z" fill="#6A85C2"/>
<path d="M191.5 359.38L244 359.38L264.933 693.938C264.969 694.513 264.512 695 263.935 695L213.439 695C212.911 695 212.474 694.589 212.441 694.062L191.5 359.38Z" fill="#6A85C2"/>
<path d="M131 358.025H244L243.5 411.025H130.5L131 358.025Z" fill="#6A85C2"/>
<rect x="167.775" y="406.025" width="34" height="1.9983" transform="rotate(7.91922 167.775 406.025)" fill="#103BA0"/>
<path d="M171.5 140H199L202 181H168L171.5 140Z" fill="#FFCEB5"/>
<path d="M243.055 133.301L243.943 134.549C244.583 135.449 245.832 135.66 246.732 135.019L256.509 128.061C258.309 126.78 258.729 124.282 257.448 122.483L256.868 121.668L255.391 119.592C255.217 119.347 255.071 119.084 254.955 118.806L236.431 74.1566C236.316 73.8788 236.17 73.615 235.996 73.37L234.316 71.0104C234.07 70.6644 233.727 70.399 233.33 70.2477C232.658 69.9914 231.902 70.088 231.316 70.5051L231.25 70.5521C230.844 70.841 230.543 71.2538 230.391 71.7285L230.266 72.1219C230.007 72.9327 230.05 73.8076 230.379 74.5924C231.995 78.4467 234.43 84.5906 234.262 85.5925C234.144 86.2901 233.673 86.3114 233.209 86.1203C232.667 85.8972 232.334 85.371 232.092 84.8374L224.394 67.8666C224.029 67.0624 223.409 66.4015 222.629 65.987L222.127 65.7203C221.334 65.2986 220.39 65.2667 219.57 65.634C218.909 65.9301 218.383 66.4619 218.093 67.1256L217.997 67.3446C217.601 68.2503 217.604 69.2805 218.003 70.1844L224.962 85.9257C225.16 86.3745 224.78 86.8638 224.296 86.7823C224.126 86.7538 223.976 86.6556 223.882 86.5117L211.185 67.0701C210.661 66.2683 209.777 65.7753 208.819 65.7514C208.19 65.7357 207.572 65.9247 207.058 66.29L205.952 67.0772C205.595 67.3312 205.322 67.6852 205.166 68.0945C204.912 68.7583 204.993 69.5033 205.381 70.0982L217.836 89.1679C218.202 89.7284 218.183 90.4569 217.788 90.9976C217.608 91.2449 217.361 91.4357 217.075 91.5474L216.991 91.5807C216.169 91.9027 215.234 91.6243 214.722 90.9053L203.451 75.0689C203.057 74.5156 202.46 74.1414 201.79 74.0286C201.12 73.9158 200.433 74.0737 199.88 74.4674L199.164 74.9769C198.611 75.3707 198.237 75.9682 198.124 76.6379C198.011 77.3076 198.169 77.9947 198.563 78.548L221.687 111.039C221.985 111.457 221.476 112.609 221.021 112.847C220.867 112.928 220.574 113.017 220.416 112.944L211.082 108.628C210.189 108.215 209.175 108.146 208.234 108.433L207.946 108.521C207.118 108.774 206.395 109.289 205.885 109.988L205.866 110.015C205.192 110.937 204.945 112.104 205.188 113.221L205.296 113.719C205.501 114.665 206.043 115.505 206.82 116.082L220.595 126.309C221.014 126.62 221.49 126.846 221.995 126.975L240.78 131.744C241.699 131.977 242.505 132.529 243.055 133.301Z" fill="#FFCEB5"/>
<ellipse cx="185" cy="181.5" rx="65" ry="12.5" fill="#50713C"/>
<path d="M209 174.5C209 180.023 198.031 189 184.5 189C170.969 189 160 180.023 160 174.5C160 168.977 170.969 169 184.5 169C198.031 169 209 168.977 209 174.5Z" fill="#50713C"/>
<path d="M237.647 135.359C237.297 134.895 237.415 134.232 237.903 133.917L260.225 119.5C260.663 119.218 261.244 119.318 261.561 119.732L326.558 204.468C327.84 206.14 328.779 208.048 329.322 210.083L331.804 219.39C332.265 221.118 332.433 222.911 332.3 224.694L331.733 232.351C331.579 234.43 331.02 236.459 330.088 238.324L327.964 242.572C326.066 246.368 322.738 249.254 318.713 250.596L317.815 250.895C314.682 251.939 311.302 251.989 308.14 251.036L235 229L242 178L244.285 177.347C245.062 177.125 245.896 177.226 246.597 177.627L249 179L293.5 209.5L237.647 135.359Z" fill="#50713C"/>
<path d="M120 182H250L243.074 360.5H132.254L120 182Z" fill="#50713C"/>
<path d="M136.154 178C137.196 178 138.064 178.801 138.147 179.84L140.964 215.034C140.988 215.334 140.944 215.635 140.835 215.915L107.845 301.11C107.627 301.673 107.675 302.304 107.975 302.828L122.886 328.801C122.962 328.933 123.052 329.056 123.156 329.168L142.53 349.995C142.813 350.299 142.879 350.746 142.695 351.118L131.126 374.593C130.821 375.212 129.994 375.343 129.512 374.848L102 346.585L72.8214 314.503C71.6494 313.214 71 311.535 71 309.793V302.535C71 302.179 71.0272 301.823 71.0812 301.471L72.3804 293.019C72.4599 292.502 72.5971 291.995 72.7896 291.508L114.704 185.512C115.225 184.194 116.087 183.039 117.201 182.163L121.956 178.427C122.308 178.15 122.744 178 123.192 178H136.154Z" fill="#50713C"/>
<path d="M133.5 383.5L130.839 372.279L140.691 351L156.362 369.712C157.234 370.753 158.268 371.648 159.423 372.362L159.639 372.495C160.436 372.988 161.165 373.582 161.808 374.262L163.186 375.723C163.461 376.014 163.662 376.367 163.773 376.751L163.866 377.075C163.953 377.379 163.94 377.703 163.83 377.999C163.687 378.386 163.388 378.696 163.006 378.853L162.789 378.943C162.545 379.043 162.284 379.095 162.02 379.095H161.442C161.042 379.095 160.643 379.046 160.255 378.95L159.166 378.68C158.178 378.436 157.218 378.085 156.305 377.634L155.308 377.142C154.675 377.336 154.429 378.103 154.832 378.629L155.343 379.296C155.447 379.431 155.527 379.582 155.581 379.744L156.5 382.5L133.5 383.5Z" fill="#FFCEB5"/>
<rect width="26.0128" height="1.39382" transform="matrix(0.998988 -0.0449701 0.0231534 0.999732 132 383.17)" fill="black"/>
<path d="M151.469 126.325L149 72.8389V65C149 62.7909 150.791 61 153 61H219C221.209 61 223 62.7909 223 65V72.8389L219.541 127.433C219.514 127.866 219.416 128.292 219.252 128.694L213.722 142.227C213.457 142.874 213.027 143.441 212.475 143.87L198.103 155.054L193.612 158.257C192.934 158.74 192.122 159 191.29 159H179.471C178.55 159 177.657 158.682 176.943 158.1L173.206 155.054L158.845 143.88C158.286 143.444 157.852 142.868 157.588 142.209L151.751 127.627C151.585 127.212 151.489 126.772 151.469 126.325Z" fill="#FFCEB5"/>
<path d="M143.607 66.3883L150 56L158.5 65L154 71.5L151.951 75.1876C151.651 75.728 151.402 76.2952 151.206 76.8817L150.513 78.9605C150.173 79.9802 150 81.048 150 82.1228V90V103.5H143.5L142.133 72.0637C142.046 70.0671 142.56 68.0903 143.607 66.3883Z" fill="#B67F22"/>
<path d="M227.893 62.3883L221.5 52L213 61L217.5 67.5L219.549 71.1876C219.849 71.728 220.098 72.2952 220.294 72.8817L220.987 74.9605C221.327 75.9802 221.5 77.048 221.5 78.1228V86V99.5H228L229.367 68.0637C229.454 66.0671 228.94 64.0903 227.893 62.3883Z" fill="#B67F22"/>
<path fill-rule="evenodd" clip-rule="evenodd" d="M149 57.5C157.284 45.2451 172.767 37 190.5 37C208.233 37 223.716 45.2451 232 57.5C223.716 69.7549 208.233 78 190.5 78C172.767 78 157.284 69.7549 149 57.5Z" fill="#B67F22"/>
<path d="M144.402 97.1314C145.937 95.2841 148.083 94.1789 150.372 94.0525L150.837 103.55L151.301 113.048C149.01 113.146 146.767 112.255 145.059 110.566C144.206 109.723 143.86 108.578 143.714 107.32C143.641 106.692 143.618 106.037 143.605 105.381C143.602 105.207 143.599 105.032 143.597 104.858C143.589 104.377 143.582 103.897 143.559 103.431C143.536 102.944 143.495 102.478 143.456 102.032C143.444 101.898 143.433 101.765 143.422 101.635C143.375 101.069 143.34 100.534 143.357 100.02C143.391 98.9952 143.633 98.0563 144.402 97.1314Z" fill="#FFCEB5" stroke="#999898" stroke-width="0.1"/>
<path d="M151.42 94C149.097 94.1136 146.918 95.2285 145.363 97.0994C143.808 98.9703 144.386 100.902 144.51 103.434C144.633 105.966 144.294 108.892 146.024 110.602C147.754 112.312 150.031 113.209 152.354 113.096L151.887 103.548L151.42 94Z" fill="#FFCEB5"/>
<path d="M226.952 97.1314C225.417 95.2841 223.271 94.1789 220.981 94.0525L220.517 103.55L220.052 113.048C222.343 113.146 224.587 112.255 226.295 110.566C227.148 109.723 227.494 108.578 227.64 107.32C227.713 106.692 227.736 106.037 227.749 105.381C227.752 105.207 227.755 105.032 227.757 104.858C227.764 104.377 227.772 103.897 227.794 103.431C227.818 102.944 227.859 102.478 227.898 102.032C227.909 101.898 227.921 101.765 227.932 101.635C227.979 101.069 228.014 100.534 227.997 100.02C227.963 98.9952 227.721 98.0563 226.952 97.1314Z" fill="#FFCEB5" stroke="#999898" stroke-width="0.1"/>
<path d="M219.934 94C222.257 94.1136 224.435 95.2285 225.99 97.0994C227.545 98.9703 226.968 100.902 226.844 103.434C226.72 105.966 227.06 108.892 225.33 110.602C223.6 112.312 221.323 113.209 219 113.096L219.467 103.548L219.934 94Z" fill="#FFCEB5"/>
<path d="M151 106H220V126.5L216.401 143.211C214.417 152.423 206.272 159 196.849 159H174.91C165.597 159 157.517 152.572 155.422 143.497L151.5 126.5L151 106Z" fill="#B67F22"/>
<path d="M154 112L153.5 106H217.5L216.5 112L214.5 119.5L212 125L210 128.5L209.215 129.547C208.788 130.116 208.045 130.348 207.37 130.123C207.127 130.042 206.906 129.906 206.724 129.724L205.943 128.943C205.648 128.648 205.384 128.325 205.152 127.978L205.136 127.954C204.715 127.323 204.406 126.624 204.222 125.887L204 125L203.973 124.918C203.662 123.985 203.138 123.138 202.443 122.443C202.148 122.148 201.825 121.884 201.478 121.652L201.362 121.575C200.79 121.193 200.169 120.89 199.517 120.672L199.144 120.548C198.055 120.185 196.915 120 195.767 120H176.062C174.692 120 173.328 120.168 172 120.5L171.186 120.771C170.731 120.923 170.298 121.135 169.898 121.401C169.305 121.796 168.796 122.305 168.401 122.898L168 123.5L167.572 124.142C167.193 124.71 166.915 125.338 166.75 126L166.72 126.121C166.574 126.703 166.33 127.255 165.997 127.754C165.668 128.248 165.258 128.682 164.783 129.038L163.732 129.826C163.578 129.941 163.407 130.031 163.224 130.092C162.493 130.336 161.688 130.084 161.226 129.468L160.5 128.5L158.5 125L156 119.5L154 112Z" fill="#FFCEB5"/>
<rect x="173" y="124" width="27" height="16" rx="8" fill="#FFCEB5"/>
<path d="M153.36 105H217.683L217.291 107H153.638L153.36 105Z" fill="#FFCEB5"/>
<path d="M186.12 102.347C185.675 101.812 186.055 101 186.751 101V101C187.021 101 187.273 101.132 187.427 101.354L188.321 102.644C188.763 103.283 189 104.041 189 104.818V107V108.837C189 109.598 188.792 110.344 188.397 110.995L187.434 112.584C187.277 112.842 186.997 113 186.696 113V113C185.99 113 185.582 112.199 185.997 111.629L186.872 110.426C187.073 110.149 187.182 109.816 187.182 109.473V107V104.12C187.182 103.8 187.07 103.49 186.866 103.245L186.12 102.347Z" fill="#8F776C"/>
<path d="M161.153 83.2774L159.558 84.554C159.205 84.8359 159 85.2627 159 85.714C159 86.7891 160.107 87.5082 161.089 87.0716L163.264 86.1048C163.421 86.0351 163.572 85.9521 163.715 85.8569L164.67 85.2197C164.89 85.0736 165.094 84.9062 165.28 84.7199L166.057 83.9428C166.669 83.3308 167.463 82.9338 168.32 82.8114L170.019 82.5687C170.339 82.5231 170.662 82.5162 170.983 82.5483L174.307 82.8807C175.041 82.9541 175.756 82.6163 176.165 82.0025L176.178 81.9834C176.388 81.6682 176.5 81.2978 176.5 80.919V80.5C176.5 79.6716 175.828 79 175 79H169.5L166.141 79.3732C165.418 79.4536 164.767 79.8498 164.363 80.4555C164.125 80.8123 163.798 81.1009 163.415 81.2927L162.603 81.6986C162.212 81.8942 161.894 82.2115 161.699 82.6028C161.568 82.8645 161.382 83.0946 161.153 83.2774Z" fill="#96691D"/>
<path d="M204.343 79H195.771C194.844 79 194.139 79.8323 194.291 80.7466C194.412 81.4699 195.037 82 195.771 82H198.651C199.211 82 199.764 82.1174 200.276 82.3448L203.11 83.6043C203.695 83.8643 204.209 84.2609 204.609 84.7608L204.933 85.1662C205.614 86.0177 206.616 86.5513 207.702 86.6418L210.557 86.8797C211.334 86.9445 212 86.3314 212 85.5519C212 85.1985 211.86 84.8596 211.61 84.6097L209 82L207.172 80.1716C206.421 79.4214 205.404 79 204.343 79Z" fill="#96691D"/>
<path fill-rule="evenodd" clip-rule="evenodd" d="M175.824 96.0476C175.939 95.7097 176 95.3593 176 95C176 92.2386 172.418 90 168 90C163.582 90 160 92.2386 160 95C160 95.3056 160.044 95.6049 160.128 95.8954C160.373 95.9097 160.663 95.9438 161 96C161 93.2386 164.134 91 168 91C171.866 91 175 93.2386 175 96C175.402 95.9426 175.67 95.9643 175.824 96.0476Z" fill="#8F776C"/>
<path fill-rule="evenodd" clip-rule="evenodd" d="M209.824 96.0476C209.939 95.7097 210 95.3593 210 95C210 92.2386 206.418 90 202 90C197.582 90 194 92.2386 194 95C194 95.3056 194.044 95.6049 194.128 95.8954C194.373 95.9097 194.663 95.9438 195 96C195 93.2386 198.134 91 202 91C205.866 91 209 93.2386 209 96C209.402 95.9426 209.67 95.9643 209.824 96.0476Z" fill="#8F776C"/>
<path fill-rule="evenodd" clip-rule="evenodd" d="M174.112 128.003C174.104 128.001 174.096 128 174.087 128V128C174.023 128 173.97 128.052 173.971 128.117C174.006 130.992 175.319 133.743 177.632 135.778C179.976 137.841 183.155 139 186.47 139C189.786 139 192.965 137.841 195.309 135.778C197.636 133.73 198.951 130.958 198.97 128.064C198.971 128.029 198.942 128 198.907 128V128C198.902 128 198.898 128 198.893 128.001C198.457 128.095 197.979 128.184 197.46 128.268C194.553 128.737 190.611 129 186.5 129C182.389 129 178.446 128.737 175.54 128.268C175.023 128.184 174.546 128.096 174.112 128.003Z" fill="#404040"/>
<path fill-rule="evenodd" clip-rule="evenodd" d="M174.1 128V128C174.028 128 173.97 128.058 173.973 128.129C174.018 129.137 174.628 130.034 177.636 130.828C179.983 131.579 183.167 132 186.486 132C189.722 132 192.829 131.599 195.158 130.884C195.277 130.848 195.399 130.821 195.522 130.803C197.99 130.44 198.958 129.098 199 128.07C199.002 128.031 198.97 128 198.931 128V128C198.493 128.034 198.012 128.067 197.489 128.097C194.579 128.268 190.631 128.364 186.515 128.364C182.399 128.364 178.452 128.268 175.542 128.097C175.019 128.067 174.538 128.034 174.1 128Z" fill="white"/>
<rect x="373.25" y="574.25" width="301.5" height="176.5" fill="#DDB68C" stroke="#828282" stroke-width="0.5"/>
<rect x="606.25" y="466.25" width="68.5" height="107.5" fill="#DDB68C" stroke="#828282" stroke-width="0.5"/>
<rect x="482" y="574" width="24" height="50" fill="#EAC196"/>
<rect x="606" y="736" width="19" height="52" transform="rotate(-90 606 736)" fill="#CBA47B"/>
<rect x="615" y="567" width="19" height="52" transform="rotate(-90 615 567)" fill="#CBA47B"/>
<defs>
<linearGradient id="paint0_linear_218_2" x1="337.5" y1="283" x2="337.5" y2="777" gradientUnits="userSpaceOnUse">
<stop stop-color="#ADE7AF" stop-opacity="0"/>
<stop offset="0.341107" stop-color="#DEF493" stop-opacity="0.64375"/>
<stop offset="0.833333" stop-color="#F9FC84"/>
</linearGradient>
<linearGradient id="paint1_linear_218_2" x1="337.5" y1="753" x2="337.5" y2="777" gradientUnits="userSpaceOnUse">
<stop stop-color="#B7B7B7"/>
<stop offset="0.9999" stop-color="white" stop-opacity="0.296875"/>
<stop offset="1" stop-opacity="0"/>
</linearGradient>
</defs>
</svg>
