<svg width="675" height="777" viewBox="0 0 675 777" fill="none" xmlns="http://www.w3.org/2000/svg">
<path d="M0 283H675V777H0V283Z" fill="url(#paint0_linear_218_135)"/>
<rect y="751" width="675" height="2" fill="black"/>
<rect y="753" width="675" height="24" fill="url(#paint1_linear_218_135)"/>
<rect x="0.25" y="613.25" width="189.5" height="137.5" fill="#DDB68C" stroke="#828282" stroke-width="0.5"/>
<rect x="0.25" y="520.25" width="102.5" height="92.5" fill="#DDB68C" stroke="#828282" stroke-width="0.5"/>
<rect x="0.25" y="520.25" width="102.5" height="92.5" fill="#DDB68C" stroke="#828282" stroke-width="0.5"/>
<rect x="39" y="520" width="19" height="30" fill="#EAC196"/>
<rect x="126" y="734" width="19" height="52" transform="rotate(-90 126 734)" fill="#CBA47B"/>
<rect x="317.832" y="710" width="18" height="21" transform="rotate(10.5126 317.832 710)" fill="#FFCEB5"/>
<path fill-rule="evenodd" clip-rule="evenodd" d="M337.025 728.457C336.106 727.407 334.036 727.6 332.752 728.148C330.629 729.057 327.316 729.243 323.766 728.481C318.096 727.264 313.97 724.088 314.549 721.388C314.564 721.323 314.58 721.258 314.6 721.194C314.741 720.726 314.554 720.138 314.079 720.02V720.02C314.027 720.006 313.973 720 313.918 720H311.361C311.122 720 310.885 720.043 310.662 720.126L270.119 735.269C269.708 735.422 269.319 735.629 268.962 735.884L268.094 736.504C266.78 737.443 266 738.958 266 740.573V743.5V745.429C266 746.755 266.527 748.027 267.464 748.964L268.036 749.535C268.973 750.473 270.245 751 271.571 751H330.429C331.755 751 333.027 750.473 333.964 749.535L335.594 747.905C336.497 747.003 337.02 745.789 337.057 744.513L337.479 729.72C337.493 729.257 337.33 728.806 337.025 728.457V728.457Z" fill="#BD8F8F"/>
<rect x="497.79" y="698.453" width="18" height="21" transform="rotate(-14.9681 497.79 698.453)" fill="#FFCEB5"/>
<path fill-rule="evenodd" clip-rule="evenodd" d="M523.057 706.858C521.776 706.305 519.989 707.37 519.067 708.417C517.541 710.151 514.63 711.744 511.098 712.583C505.456 713.924 500.365 712.832 499.727 710.146C499.711 710.08 499.698 710.015 499.688 709.949C499.615 709.465 499.192 709.015 498.713 709.112V709.112C498.66 709.123 498.608 709.141 498.559 709.164L496.421 710.183C496.096 710.338 495.819 710.577 495.619 710.876L484.685 727.223C484.562 727.406 484.41 727.568 484.235 727.702L465.964 741.629C465.414 742.049 464.957 742.578 464.621 743.183L464.243 743.867C463.491 745.223 463.442 746.858 464.108 748.258C464.905 749.929 466.591 750.993 468.442 750.993L470.5 750.993L492.556 750.993C493.5 750.993 494.423 750.726 495.221 750.223L527.202 730.079C528.153 729.48 528.874 728.578 529.25 727.519L530.132 725.03C530.559 723.827 530.509 722.506 529.993 721.338L524.011 707.803C523.823 707.379 523.483 707.041 523.057 706.858V706.858Z" fill="#BD8F8F"/>
<path d="M358.173 501.334C359.138 497.195 363.54 494.864 367.507 496.392L414.582 514.527C418.145 515.9 419.951 519.874 418.641 523.46L398 580L381.758 653.335C381.587 654.106 381.287 654.843 380.87 655.514L343.293 716.027C343.111 716.321 342.79 716.5 342.444 716.5H309.26C308.616 716.5 308.14 715.9 308.286 715.273L358.173 501.334Z" fill="#69A2CB"/>
<path d="M409.628 525.735C407.918 522.016 409.75 517.631 413.596 516.232L463.503 498.089C467.805 496.525 472.426 499.443 472.863 504L475.5 531.5L488.97 564.841L520.221 632.937C520.602 633.766 520.816 634.661 520.854 635.572L523.464 699.627C523.485 700.127 523.133 700.565 522.64 700.653L493.261 705.865C492.813 705.945 492.367 705.712 492.177 705.298L409.628 525.735Z" fill="#69A2CB"/>
<rect width="17" height="1" transform="matrix(1 0 0 -1 407 535)" fill="black"/>
<rect x="359" y="480" width="114" height="44" fill="#69A2CB"/>
<path d="M271.795 410.917C276.591 410.68 282.388 410.398 287.777 410.143C291.993 409.944 316.616 411.211 320.82 411.593C321.62 411.665 322.402 411.721 323.151 411.753C324.946 411.831 326.604 412.904 327.208 414.596L328.767 418.961C329.58 421.234 328.208 423.704 325.849 424.216L314.618 426.653C314.157 426.753 313.717 426.934 313.319 427.187L302.226 434.246C301.555 434.673 300.772 434.89 299.977 434.87L261.697 433.901L257.745 433.478C256.775 433.375 255.877 432.921 255.219 432.202L252.552 429.289C252.319 429.034 252.155 428.724 252.075 428.389C251.854 427.463 252.306 426.508 253.161 426.092L255.798 424.809C256.092 424.667 256.402 424.56 256.721 424.493L283.197 418.901L276.697 417.401L271.556 416.704C270.538 416.566 269.669 415.902 269.268 414.957C268.479 413.096 269.776 411.017 271.795 410.917Z" fill="#FFCEB5" stroke="#999898" stroke-width="0.4"/>
<path d="M397.497 290.5H419.514C422.912 290.5 425.736 293.117 425.995 296.506L434.329 405.777C434.439 407.221 434.316 408.673 433.965 410.078L433.921 410.253C433.053 413.726 430.84 416.713 427.77 418.555L427.626 418.641C426.109 419.552 424.427 420.155 422.677 420.417L326.461 434.804C322.532 435.391 319 432.348 319 428.375V412.789C319 409.67 321.216 406.99 324.28 406.405L390.999 393.656C394.726 392.944 397.334 389.561 397.074 385.775L391.012 297.445C390.754 293.689 393.732 290.5 397.497 290.5Z" fill="#E79C2D" stroke="#B97E27"/>
<rect x="404" y="250" width="20" height="32" fill="#FFCEB5"/>
<path d="M377 195V191.691C377 189.23 379.202 187.352 381.632 187.741L413.364 192.818C414.106 192.937 414.8 193.263 415.366 193.758L418.068 196.122C418.354 196.373 418.604 196.663 418.808 196.985L421.549 201.291C421.846 201.759 422.044 202.283 422.128 202.83L428.692 245.497C428.896 246.824 428.893 248.175 428.684 249.502L428.371 251.481C427.815 255.004 425.796 258.172 422.856 260.193C420.689 261.683 418.092 262.5 415.462 262.5H383.828C382.017 262.5 380.281 261.781 379 260.5C377.719 259.219 377 257.483 377 255.672V239.232C377 237.92 376.107 236.777 374.834 236.459C372.945 235.986 372.071 233.805 373.111 232.158L376.382 226.979C376.786 226.339 377 225.599 377 224.843V195Z" fill="#FFCEB5"/>
<rect x="380" y="203.5" width="16" height="2" rx="1" fill="#624635"/>
<rect x="383" y="213.5" width="5" height="5" rx="1" fill="#624635"/>
<path d="M377 247.833H380.884C381.408 247.833 381.925 247.716 382.397 247.489L385.008 246.236C385.281 246.105 385.609 246.217 385.744 246.488V246.488C385.884 246.768 385.765 247.109 385.481 247.24L382.441 248.648C381.94 248.88 381.394 249 380.842 249H377V247.833Z" fill="#C67A75"/>
<path d="M403.265 195.206L403.312 194.253C403.39 192.708 405.198 191.915 406.386 192.905C406.462 192.968 406.533 193.037 406.597 193.111L409.785 196.754C409.928 196.918 410.084 197.069 410.252 197.208L417.418 203.109C418.118 203.686 418.602 204.484 418.789 205.372L420.5 213.5L421.5 220L424.5 243L425.184 246.761C425.385 247.868 426.044 248.84 426.999 249.437L432.918 253.136C433.303 253.377 433.727 253.55 434.17 253.649L442.019 255.393C442.339 255.464 442.648 255.574 442.94 255.72L443.922 256.211C445.898 257.199 448.301 256.398 449.289 254.422L451.5 250L457.597 240.619C457.864 240.21 458.052 239.755 458.155 239.278L461 226L461.281 223.194C461.417 221.828 462.244 220.628 463.472 220.014L464.177 219.661C464.392 219.554 464.597 219.428 464.789 219.284L465.218 218.962C466.041 218.344 466.594 217.434 466.763 216.419L467 215L471.798 194.37C471.931 193.797 471.936 193.202 471.813 192.626L470.794 187.87C470.604 186.983 470.118 186.187 469.415 185.613L465.51 182.417C465.172 182.141 464.882 181.811 464.651 181.441L463.108 178.973C462.711 178.337 462.5 177.602 462.5 176.853V173V169.321C462.5 168.779 462.39 168.243 462.177 167.745L461.673 166.57C461.243 165.567 460.422 164.783 459.401 164.4L457.811 163.804C457.277 163.604 456.791 163.291 456.387 162.887L455 161.5L452.074 158.574C451.707 158.207 451.208 158 450.688 158C450.243 158 449.811 157.848 449.463 157.57L447.933 156.347C447.646 156.117 447.391 155.848 447.177 155.548L445.192 152.769C445.064 152.59 444.922 152.422 444.766 152.266L440.822 148.322C440.608 148.108 440.37 147.919 440.114 147.759L437.292 145.995C436.771 145.669 436.182 145.468 435.57 145.407L431.983 145.048C431.662 145.016 431.339 145.023 431.019 145.069L424.5 146L414.779 147.944C414.593 147.981 414.405 148.005 414.216 148.016L406.008 148.472C405.671 148.491 405.332 148.466 405.001 148.4L403.388 148.078C403.13 148.026 402.867 148 402.604 148H400.657C399.596 148 398.579 148.421 397.828 149.172L397.459 149.541C397.155 149.845 396.902 150.196 396.71 150.581L395.596 152.807C395.209 153.582 394.582 154.209 393.807 154.596L392.538 155.231C392.181 155.409 391.8 155.533 391.407 155.599L383.31 156.948C383.104 156.983 382.9 157.033 382.702 157.099L376.15 159.283C375.72 159.427 375.317 159.642 374.959 159.921L372.122 162.127C371.396 162.692 370.887 163.489 370.68 164.385L369.5 169.5L367.09 176.73C367.03 176.91 366.958 177.085 366.873 177.254L364.409 182.182C364.146 182.709 364.086 183.314 364.241 183.882C364.759 185.785 367.228 186.278 368.439 184.722L368.643 184.458C368.878 184.157 369.177 183.911 369.519 183.74L370.751 183.124C370.917 183.042 371.088 182.971 371.264 182.912L371.831 182.723C372.265 182.578 372.735 182.578 373.169 182.723C373.701 182.9 374.141 183.282 374.392 183.784L375.339 185.677C375.446 185.892 375.572 186.097 375.716 186.289L377.978 189.305C378.322 189.763 378.76 190.142 379.263 190.416L383.289 192.612C383.758 192.868 384.274 193.027 384.806 193.081L388.47 193.447C388.822 193.482 389.177 193.471 389.526 193.412L391.673 193.054C391.891 193.018 392.111 193 392.331 193H392.679C393.221 193 393.757 193.11 394.255 193.323L396.386 194.237C396.792 194.411 397.16 194.66 397.472 194.972L399.252 196.752C400.694 198.194 403.163 197.243 403.265 195.206Z" fill="#624635"/>
<path d="M427.24 218.868C425.568 217.144 423.344 216.206 421.051 216.256L421.316 225.761L421.581 235.266C423.873 235.188 426.041 234.128 427.615 232.314C428.401 231.407 428.658 230.239 428.707 228.974C428.732 228.342 428.705 227.688 428.667 227.032C428.657 226.858 428.646 226.684 428.635 226.51C428.606 226.029 428.576 225.551 428.563 225.085C428.549 224.597 428.554 224.129 428.559 223.681C428.56 223.547 428.562 223.414 428.562 223.283C428.566 222.715 428.56 222.179 428.504 221.668C428.391 220.649 428.078 219.731 427.24 218.868Z" fill="#FFCEB5" stroke="#999898" stroke-width="0.1"/>
<path d="M412.756 273.5H419.244C439.214 273.5 455.869 288.77 457.599 308.665L472.455 479.5H359.545L374.401 308.665C376.131 288.77 392.786 273.5 412.756 273.5Z" fill="#E79C2D" stroke="#B97E27"/>
<mask id="path-27-inside-1_218_135" fill="white">
<path fill-rule="evenodd" clip-rule="evenodd" d="M452.627 291.566C452.322 291.466 452.018 291.366 451.714 291.266L451.714 291.266C448.92 290.347 446.17 289.442 443.5 288.5C414.62 295.417 397.325 328.133 403.893 375.113C410.178 420.067 434.291 457.172 463.081 444.08C458.795 432.347 459.186 415.056 459.663 393.938C459.827 386.717 460 379.047 460 371C460 332.16 455.22 303.99 452.627 291.566ZM465.443 449.154C462.209 451.15 458.777 452.613 455.173 453.476C426.292 460.393 397.31 426.164 390.44 377.024C383.57 327.884 409.619 290.417 438.5 283.5C452.766 280.083 465.054 284.76 474.666 296.29C496.481 309.249 525.5 332.738 525.5 366C525.5 369.807 525.516 373.554 525.532 377.232C525.734 425.04 525.886 461 490.5 461C477.596 461 469.934 456.791 465.443 449.154Z"/>
</mask>
<path fill-rule="evenodd" clip-rule="evenodd" d="M452.627 291.566C452.322 291.466 452.018 291.366 451.714 291.266L451.714 291.266C448.92 290.347 446.17 289.442 443.5 288.5C414.62 295.417 397.325 328.133 403.893 375.113C410.178 420.067 434.291 457.172 463.081 444.08C458.795 432.347 459.186 415.056 459.663 393.938C459.827 386.717 460 379.047 460 371C460 332.16 455.22 303.99 452.627 291.566ZM465.443 449.154C462.209 451.15 458.777 452.613 455.173 453.476C426.292 460.393 397.31 426.164 390.44 377.024C383.57 327.884 409.619 290.417 438.5 283.5C452.766 280.083 465.054 284.76 474.666 296.29C496.481 309.249 525.5 332.738 525.5 366C525.5 369.807 525.516 373.554 525.532 377.232C525.734 425.04 525.886 461 490.5 461C477.596 461 469.934 456.791 465.443 449.154Z" fill="#6CA26B"/>
<path d="M452.627 291.566L453.117 291.464L453.058 291.181L452.783 291.091L452.627 291.566ZM451.714 291.266L451.87 290.791L451.869 290.79L451.714 291.266ZM451.714 291.266L451.557 291.741L451.558 291.741L451.714 291.266ZM443.5 288.5L443.667 288.028L443.528 287.979L443.384 288.014L443.5 288.5ZM403.893 375.113L403.398 375.182L403.398 375.182L403.893 375.113ZM463.081 444.08L463.288 444.535L463.709 444.343L463.55 443.908L463.081 444.08ZM459.663 393.938L460.163 393.949L460.163 393.949L459.663 393.938ZM465.443 449.154L465.874 448.901L465.615 448.461L465.18 448.729L465.443 449.154ZM455.173 453.476L455.056 452.99L455.056 452.99L455.173 453.476ZM390.44 377.024L389.945 377.093L389.945 377.093L390.44 377.024ZM438.5 283.5L438.617 283.986L438.617 283.986L438.5 283.5ZM474.666 296.29L474.281 296.61L474.336 296.676L474.41 296.72L474.666 296.29ZM525.532 377.232L526.032 377.23L526.032 377.23L525.532 377.232ZM452.783 291.091C452.478 290.991 452.174 290.891 451.87 290.791L451.557 291.741C451.861 291.841 452.166 291.941 452.471 292.041L452.783 291.091ZM451.869 290.79L451.869 290.79L451.558 291.741L451.558 291.741L451.869 290.79ZM451.87 290.791C449.076 289.872 446.33 288.969 443.667 288.028L443.334 288.971C446.009 289.916 448.765 290.822 451.557 291.741L451.87 290.791ZM443.384 288.014C414.13 295.02 396.815 328.095 403.398 375.182L404.388 375.044C397.835 328.171 415.109 295.814 443.617 288.986L443.384 288.014ZM403.398 375.182C406.548 397.714 414.17 418.322 424.654 431.672C429.898 438.35 435.878 443.237 442.399 445.618C448.933 448.004 455.974 447.86 463.288 444.535L462.874 443.625C455.792 446.845 449.023 446.972 442.742 444.679C436.448 442.38 430.609 437.637 425.441 431.055C415.1 417.887 407.523 397.466 404.388 375.044L403.398 375.182ZM463.55 443.908C461.433 438.113 460.463 430.918 460.085 422.506C459.708 414.097 459.924 404.513 460.163 393.949L459.163 393.927C458.925 404.481 458.707 414.101 459.086 422.551C459.465 430.997 460.442 438.313 462.611 444.251L463.55 443.908ZM460.163 393.949C460.327 386.729 460.5 379.054 460.5 371H459.5C459.5 379.041 459.327 386.705 459.163 393.927L460.163 393.949ZM460.5 371C460.5 332.119 455.715 303.914 453.117 291.464L452.138 291.668C454.725 304.065 459.5 332.2 459.5 371H460.5ZM465.18 448.729C461.989 450.698 458.605 452.14 455.056 452.99L455.289 453.962C458.949 453.086 462.43 451.601 465.706 449.58L465.18 448.729ZM455.056 452.99C440.866 456.388 426.578 449.7 414.934 435.948C403.293 422.2 394.36 401.452 390.935 376.955L389.945 377.093C393.39 401.736 402.383 422.673 414.171 436.594C425.955 450.513 440.599 457.481 455.289 453.962L455.056 452.99ZM390.935 376.955C384.09 327.992 410.056 290.826 438.617 283.986L438.384 283.014C409.183 290.007 383.05 327.776 389.945 377.093L390.935 376.955ZM438.617 283.986C452.678 280.618 464.779 285.21 474.281 296.61L475.05 295.97C465.329 284.309 452.853 279.548 438.384 283.014L438.617 283.986ZM474.41 296.72C485.293 303.184 497.951 312.263 507.884 323.856C517.815 335.447 525 349.524 525 366H526C526 349.214 518.676 334.915 508.643 323.206C498.613 311.499 485.854 302.354 474.921 295.86L474.41 296.72ZM525 366C525 369.808 525.016 373.557 525.032 377.234L526.032 377.23C526.016 373.552 526 369.805 526 366H525ZM525.032 377.234C525.133 401.169 525.216 422.024 520.881 436.904C518.718 444.33 515.467 450.217 510.611 454.25C505.762 458.277 499.259 460.5 490.5 460.5V461.5C499.435 461.5 506.182 459.228 511.25 455.019C516.312 450.815 519.645 444.724 521.841 437.184C526.226 422.132 526.133 401.104 526.032 377.23L525.032 377.234ZM490.5 460.5C484.1 460.5 479.039 459.456 475.037 457.492C471.041 455.531 468.073 452.641 465.874 448.901L465.012 449.408C467.303 453.304 470.412 456.337 474.596 458.39C478.774 460.44 483.996 461.5 490.5 461.5V460.5Z" fill="#557B55" mask="url(#path-27-inside-1_218_135)"/>
<rect x="221.25" y="326.25" width="94.5" height="108.5" fill="#DDB68C" stroke="#A6A6A6" stroke-width="0.5"/>
<rect x="257.116" y="326" width="17.2727" height="35" fill="#EAC196"/>
<path d="M280.795 421.917C285.591 421.68 291.388 421.398 296.777 421.143C300.993 420.944 325.616 422.211 329.82 422.593C330.62 422.665 331.402 422.721 332.152 422.753C333.946 422.831 335.604 423.904 336.209 425.596L337.768 429.961C338.58 432.234 337.208 434.704 334.849 435.216L323.618 437.653C323.157 437.753 322.717 437.934 322.319 438.187L311.226 445.246C310.555 445.673 309.772 445.89 308.978 445.87L270.697 444.901L266.745 444.478C265.776 444.375 264.877 443.921 264.219 443.202L261.552 440.289C261.319 440.034 261.155 439.724 261.075 439.389C260.854 438.463 261.306 437.508 262.162 437.092L264.799 435.809C265.092 435.667 265.402 435.56 265.722 435.493L292.197 429.901L285.697 428.401L280.556 427.704C279.539 427.566 278.669 426.902 278.268 425.957C277.479 424.096 278.776 422.017 280.795 421.917Z" fill="#FFCEB5" stroke="#999898" stroke-width="0.4"/>
<path d="M419.264 299.5H431.514C434.912 299.5 437.736 302.117 437.995 305.506L446.329 414.777C446.439 416.221 446.316 417.673 445.965 419.078L445.921 419.253C445.053 422.726 442.84 425.713 439.77 427.555L439.612 427.649C438.104 428.555 436.432 429.156 434.693 429.42L333.475 444.784C329.542 445.381 326 442.336 326 438.357V422.786C326 419.668 328.214 416.989 331.277 416.402L403.607 402.542C407.046 401.884 409.571 398.933 409.691 395.434L412.768 305.777C412.888 302.276 415.761 299.5 419.264 299.5Z" fill="#E79C2D" stroke="#B97E27"/>
<defs>
<linearGradient id="paint0_linear_218_135" x1="337.5" y1="283" x2="337.5" y2="777" gradientUnits="userSpaceOnUse">
<stop stop-color="#ADE7AF" stop-opacity="0"/>
<stop offset="0.341107" stop-color="#DEF493" stop-opacity="0.64375"/>
<stop offset="0.833333" stop-color="#F9FC84"/>
</linearGradient>
<linearGradient id="paint1_linear_218_135" x1="337.5" y1="753" x2="337.5" y2="777" gradientUnits="userSpaceOnUse">
<stop stop-color="#B7B7B7"/>
<stop offset="0.9999" stop-color="white" stop-opacity="0.296875"/>
<stop offset="1" stop-opacity="0"/>
</linearGradient>
</defs>
</svg>
