<svg width="100" height="100" viewBox="0 0 100 100" fill="none" xmlns="http://www.w3.org/2000/svg">
<ellipse cx="50" cy="50" rx="48" ry="45" fill="url(#paint0_radial_23_39)"/>
<ellipse cx="50" cy="50" rx="48" ry="45" fill="url(#paint1_linear_23_39)" fill-opacity="0.2"/>
<circle cx="34.5" cy="52.5" r="13.5" fill="white"/>
<circle cx="68.5" cy="52.5" r="13.5" fill="white"/>
<ellipse cx="34" cy="50.5" rx="12" ry="11.5" fill="black"/>
<ellipse cx="68" cy="50.5" rx="12" ry="11.5" fill="black"/>
<ellipse cx="31.2998" cy="47.0762" rx="5.29547" ry="6.40377" transform="rotate(53.2011 31.2998 47.0762)" fill="white"/>
<ellipse cx="65.2998" cy="47.0762" rx="5.29547" ry="6.40377" transform="rotate(53.2011 65.2998 47.0762)" fill="white"/>
<ellipse cx="38.5804" cy="55.6229" rx="1.69752" ry="2" transform="rotate(39.3073 38.5804 55.6229)" fill="white"/>
<ellipse cx="72.5804" cy="55.6229" rx="1.69752" ry="2" transform="rotate(39.3073 72.5804 55.6229)" fill="white"/>
<path d="M21.1509 35.9237C21.1509 34.9734 21.9213 34.203 22.8717 34.203L23.6665 34.203C23.9865 34.203 24.3036 34.1419 24.6007 34.0231L26.6509 33.203L29.2843 31.7778C29.9902 31.3957 30.6521 30.9376 31.2583 30.4115L32.6509 29.203L34.3419 27.512C34.8377 27.0162 35.5711 26.8431 36.2363 27.0648L36.3199 27.0927C36.5376 27.1652 36.7354 27.2875 36.8976 27.4497C37.3475 27.8996 37.459 28.5868 37.1745 29.1558L36.4266 30.6517C36.244 31.0168 36.0037 31.3502 35.7151 31.6388L34.1084 33.2455C33.4725 33.8814 32.7609 34.437 31.9897 34.8997L31.51 35.1876C30.9384 35.5305 30.3369 35.8207 29.7129 36.0548L27.4838 36.8907C26.9294 37.0985 26.3592 37.2613 25.7787 37.3774L24.447 37.6438C24.2501 37.6832 24.0498 37.703 23.8489 37.703L22.9415 37.703C22.1708 37.703 21.4836 37.201 21.2399 36.4698C21.1814 36.2944 21.1509 36.1087 21.1509 35.9237Z" fill="#EC9000"/>
<path d="M81.0864 35.9237C81.0864 34.9734 80.316 34.203 79.3657 34.203L78.5709 34.203C78.2508 34.203 77.9338 34.1419 77.6366 34.0231L75.5864 33.203L73.3392 31.9868C72.3767 31.4658 71.474 30.8411 70.6474 30.1237L69.5864 29.203L67.8955 27.512C67.3996 27.0162 66.6662 26.8431 66.001 27.0648L65.9174 27.0927C65.6998 27.1652 65.502 27.2875 65.3397 27.4497C64.8899 27.8996 64.7783 28.5868 65.0628 29.1558L65.8108 30.6517C65.9933 31.0168 66.2336 31.3502 66.5223 31.6388L67.9015 33.0181C68.6885 33.805 69.569 34.4925 70.5234 35.0652C71.2306 35.4895 71.975 35.8487 72.7472 36.1383L74.5133 36.8006C75.2276 37.0684 75.9623 37.2782 76.7102 37.4278L77.7903 37.6438C77.9872 37.6832 78.1876 37.703 78.3884 37.703L79.2959 37.703C80.0666 37.703 80.7538 37.201 80.9975 36.4698C81.056 36.2944 81.0864 36.1087 81.0864 35.9237Z" fill="#EC9000"/>
<path d="M42.0415 76.6462C42.3369 75.9078 42.8929 75.3036 43.6042 74.9479L44.0519 74.724C44.3497 74.5751 44.663 74.4593 44.986 74.3785L46.5 74L46.9223 73.8592C47.6361 73.6213 48.3836 73.5 49.1359 73.5H50H51.3069C51.7678 73.5 52.2277 73.5455 52.6797 73.6359L53.8698 73.874C54.2891 73.9578 54.6997 74.0799 55.0967 74.2387L56.3095 74.7238C56.7679 74.9071 57.2 75.15 57.5949 75.4462L58.4562 76.0921C58.8103 76.3577 59.075 76.725 59.215 77.1449C59.3975 77.6924 59.355 78.29 59.0969 78.8062L59.0262 78.9477C58.6922 79.6156 58.0831 80.1042 57.3586 80.2853L57.1677 80.3331C56.7283 80.4429 56.2697 80.4514 55.8266 80.3578L54.1325 80L52.1473 79.6229C51.7167 79.5412 51.2794 79.5 50.8411 79.5H50.1931C49.7322 79.5 49.2723 79.5455 48.8203 79.6359L47.4482 79.9104C47.15 79.97 46.858 80.0568 46.5756 80.1697L45.6916 80.5234C44.9337 80.8265 44.0822 80.7911 43.3521 80.426C42.799 80.1495 42.3505 79.701 42.074 79.1479C41.7089 78.4178 41.6735 77.5663 41.9766 76.8084L42.0415 76.6462Z" fill="black"/>
<defs>
<radialGradient id="paint0_radial_23_39" cx="0" cy="0" r="1" gradientUnits="userSpaceOnUse" gradientTransform="translate(50 50) rotate(90) scale(45 48)">
<stop offset="0.927083" stop-color="#FEE230"/>
<stop offset="0.963542" stop-color="#F6BC1A"/>
<stop offset="1" stop-color="#EC9000"/>
</radialGradient>
<linearGradient id="paint1_linear_23_39" x1="50" y1="5" x2="50" y2="95" gradientUnits="userSpaceOnUse">
<stop offset="0.685455" stop-color="#FEE230"/>
<stop offset="0.973958" stop-color="#483F2D"/>
</linearGradient>
</defs>
</svg>
