<svg width="100" height="100" viewBox="0 0 100 100" fill="none" xmlns="http://www.w3.org/2000/svg">
<path fill-rule="evenodd" clip-rule="evenodd" d="M65.3082 68.8497L71.7588 62.2216C71.7972 62.2792 71.8383 62.34 71.8817 62.4033C72.1636 62.8133 72.5587 63.342 72.9902 63.7736C73.7433 64.5267 74.407 64.8521 75.0139 64.958L97.7734 87.108C99.7524 89.0339 99.7954 92.1995 97.8694 94.1784C95.9435 96.1574 92.7779 96.2003 90.799 94.2744L68.0588 72.1433C67.9674 71.5005 67.6386 70.7993 66.8116 70.004C66.3717 69.581 65.8354 69.1964 65.4199 68.9226C65.3817 68.8974 65.3444 68.8731 65.3082 68.8497Z" fill="#142D55"/>
<circle cx="40.5" cy="40.5" r="33.5" stroke="#142D55" stroke-width="10"/>
</svg>
