<svg width="100" height="100" viewBox="0 0 100 100" fill="none" xmlns="http://www.w3.org/2000/svg">
<path fill-rule="evenodd" clip-rule="evenodd" d="M49.8481 75.583C63.7709 75.583 75.0574 64.0552 75.0574 49.8349C75.0574 35.6146 63.7709 24.0868 49.8481 24.0868C35.9254 24.0868 24.6388 35.6146 24.6388 49.8349C24.6388 64.0552 35.9254 75.583 49.8481 75.583ZM49.8482 71.7965C61.7234 71.7965 71.3502 61.964 71.3502 49.8349C71.3502 37.7058 61.7234 27.8733 49.8482 27.8733C37.9729 27.8733 28.3461 37.7058 28.3461 49.8349C28.3461 61.964 37.9729 71.7965 49.8482 71.7965Z" fill="white"/>
<path d="M29.5577 22.8542C29.5367 22.4893 29.8914 22.2211 30.2269 22.3483L40.4083 26.2052C40.7757 26.3444 40.8432 26.8442 40.5269 27.0834L30.9847 34.2985C30.6684 34.5376 30.22 34.3258 30.1969 33.9262L29.5577 22.8542Z" fill="white"/>
<path d="M17.8171 39.9641C17.5906 39.685 17.7175 39.2665 18.0589 39.167L28.4992 36.124C28.8801 36.0129 29.2346 36.375 29.1188 36.7568L25.6066 48.3379C25.4908 48.7197 24.998 48.8137 24.7452 48.5021L17.8171 39.9641Z" fill="white"/>
<path d="M18.2028 60.6678C17.8597 60.5748 17.7251 60.1586 17.9465 59.8752L24.7181 51.2071C24.9651 50.8909 25.4594 50.9756 25.5821 51.3552L29.3045 62.8676C29.4272 63.2472 29.0796 63.6159 28.6968 63.5122L18.2028 60.6678Z" fill="white"/>
<path d="M30.2998 77.9908C29.9663 78.1236 29.607 77.8612 29.6222 77.496L30.082 66.4146C30.0986 66.0149 30.5434 65.7958 30.8635 66.0296L40.5213 73.0825C40.8415 73.3163 40.7824 73.8171 40.4174 73.9624L30.2998 77.9908Z" fill="white"/>
<path d="M50.0372 84.1354C49.8325 84.4375 49.3834 84.4252 49.1949 84.1123L43.505 74.6644C43.3011 74.3259 43.5515 73.8961 43.9464 73.907L55.8155 74.2332C56.2103 74.244 56.4378 74.6869 56.2164 75.0138L50.0372 84.1354Z" fill="white"/>
<path d="M70.4574 77.4515C70.481 77.8162 70.1284 78.0869 69.792 77.9623L59.5834 74.1811C59.215 74.0447 59.1438 73.5453 59.4584 73.3038L68.949 66.018C69.2635 65.7765 69.7134 65.9852 69.7393 66.3846L70.4574 77.4515Z" fill="white"/>
<path d="M81.5722 60.045C81.7907 60.3308 81.6518 60.7458 81.3077 60.8351L70.7852 63.5673C70.4014 63.6669 70.0577 63.2945 70.1843 62.9162L74.0243 51.4441C74.1509 51.0659 74.6459 50.9863 74.8897 51.3051L81.5722 60.045Z" fill="white"/>
<path d="M81.9023 39.1586C82.2441 39.2564 82.3731 39.6743 82.1479 39.9545L75.2617 48.5279C75.0105 48.8407 74.5173 48.7492 74.3996 48.368L70.8307 36.805C70.713 36.4238 71.0657 36.0599 71.4471 36.169L81.9023 39.1586Z" fill="white"/>
<path d="M68.8416 22.2982C69.173 22.1599 69.5367 22.4166 69.5272 22.7821L69.2409 33.8696C69.2306 34.2694 68.7894 34.4955 68.4655 34.2669L58.6985 27.3726C58.3747 27.144 58.4257 26.6425 58.7883 26.4913L68.8416 22.2982Z" fill="white"/>
<path d="M49.1807 15.664C49.3771 15.3563 49.8265 15.356 50.0233 15.6635L55.9663 24.9476C56.1792 25.2802 55.9405 25.7168 55.5455 25.7171L43.6721 25.7251C43.2771 25.7254 43.0378 25.2891 43.2503 24.9561L49.1807 15.664Z" fill="white"/>
</svg>
